<svg width="699" height="1432" viewBox="0 0 699 1432" fill="none" xmlns="http://www.w3.org/2000/svg">
<mask id="mask0_37_1480" style="mask-type:luminance" maskUnits="userSpaceOnUse" x="-379" y="354" width="724" height="724">
<path d="M-70.0205 358.302C-267.558 387.58 -403.974 571.452 -374.714 768.992C-345.453 966.533 -161.597 1102.94 35.9412 1073.66C233.479 1044.38 369.895 860.51 340.634 662.969C311.374 465.429 127.517 329.025 -70.0205 358.302Z" fill="white"/>
</mask>
<g mask="url(#mask0_37_1480)">
<path d="M72.6234 1124.97C7.78028 1084.58 -65.1538 1064.94 -130.635 1024.48C-176.939 995.853 -226.728 974.575 -271.586 943.385C-392.063 859.636 -507.968 768.133 -625.75 680.629" stroke="white" stroke-width="0.75" stroke-miterlimit="10"/>
<path d="M79.6879 1115.61C14.8271 1076.51 -56.1658 1053.07 -121.097 1013.5C-168.556 984.594 -219.83 965.032 -265.688 933.19C-385.486 850.036 -501.361 757.798 -617.884 669.986" stroke="white" stroke-width="0.75" stroke-miterlimit="10"/>
<path d="M85.5176 1108.24C21.8957 1069.76 -46.4345 1040 -110.612 1002.35C-160.466 973.119 -215.055 956.882 -262.891 923.664C-314.756 887.669 -357.758 841.771 -407.906 803.748C-473.903 753.694 -543.847 709.163 -610.018 659.343" stroke="white" stroke-width="0.75" stroke-miterlimit="10"/>
<path d="M90.319 1102.5C28.7844 1064.03 -36.0015 1026.26 -99.3291 991.063C-152.596 961.449 -212.011 949.962 -262.597 914.734C-314.54 878.56 -351.642 827.649 -400.542 788.189C-464.196 736.814 -536.488 697.447 -602.109 648.763" stroke="white" stroke-width="0.75" stroke-miterlimit="10"/>
<path d="M94.2858 1098.05C34.7898 1058.67 -25.0299 1014.05 -87.5068 979.66C-144.265 948.425 -210.396 944.193 -264.377 906.234C-316.518 869.55 -346.38 813.045 -393.573 771.489C-453.924 718.354 -529.38 685.091 -594.257 638.14" stroke="white" stroke-width="0.75" stroke-miterlimit="10"/>
<path d="M97.6785 1094.54C40.7891 1053.97 -12.5899 999.77 -75.1935 968.167C-136.749 937.069 -210.242 939.128 -267.552 898.063C-320.019 860.471 -341.626 798.064 -386.779 753.963C-443.038 698.987 -522.509 672.196 -586.352 627.526" stroke="white" stroke-width="0.75" stroke-miterlimit="10"/>
<path d="M100.689 1091.63C46.0919 1049.27 1.0292 985.944 -62.6282 956.618C-128.978 926.022 -211.361 934.511 -271.691 890.085C-324.523 851.191 -337.326 782.837 -380.188 735.892C-431.891 679.267 -515.956 658.913 -578.501 616.903" stroke="white" stroke-width="0.75" stroke-miterlimit="10"/>
<path d="M103.541 1088.93C50.6871 1044.14 15.9214 972.729 -49.9316 945.016C-121.163 915.039 -212.274 929.169 -276.188 882.144C-329.759 842.734 -333.506 767.073 -373.632 717.583C-420.682 659.504 -509.525 645.51 -570.602 606.255" stroke="white" stroke-width="0.75" stroke-miterlimit="10"/>
<path d="M106.47 1086.16C54.8714 1038.46 31.8344 960.181 -37.278 933.472C-112.918 904.253 -213.707 923.956 -280.525 874.232C-334.698 833.919 -329.646 751.337 -367.036 699.425C-409.786 640.083 -503.064 632.31 -562.711 595.661" stroke="white" stroke-width="0.75" stroke-miterlimit="10"/>
<path d="M109.694 1082.92C58.9647 1032.17 48.2311 948.083 -24.8484 921.944C-104.391 893.495 -214.864 918.372 -284.157 866.145C-338.924 824.877 -325.465 735.659 -360.331 681.651C-399.419 621.088 -496.363 619.44 -554.826 585.032" stroke="white" stroke-width="0.75" stroke-miterlimit="10"/>
<path d="M113.39 1078.88C63.1568 1025.25 64.416 936.433 -12.8272 910.477C-95.7239 882.629 -215.144 912.257 -286.545 857.77C-341.97 815.469 -320.664 720.41 -353.437 664.562C-389.69 602.83 -489.396 607.07 -546.941 574.404" stroke="white" stroke-width="0.75" stroke-miterlimit="10"/>
<path d="M117.839 1073.7C67.6817 1017.76 79.8294 925.21 -1.30648 899.153C-42.5154 885.907 -90.9743 884.759 -133.59 880.799C-179.024 876.595 -248.591 878.75 -287.165 849.01C-343.485 805.59 -314.91 705.958 -346.271 648.493C-380.589 585.622 -482.135 595.282 -539.09 563.78" stroke="white" stroke-width="0.75" stroke-miterlimit="10"/>
<path d="M123.229 1067C72.5094 1009.5 93.9224 914.462 9.51448 887.916C-32.9989 874.55 -83.5608 874.114 -127.454 870.569C-173.703 866.851 -246.119 870.193 -285.413 839.709C-342.936 795.093 -307.841 692.634 -338.67 633.716C-372.112 569.829 -474.51 584.188 -531.19 553.133" stroke="white" stroke-width="0.75" stroke-miterlimit="10"/>
<path d="M129.793 1058.48C77.649 1000.41 106.282 904.335 19.4607 876.878C-23.7207 863.228 -75.9967 863.429 -120.54 860.189C-167.546 856.757 -240.806 860.868 -280.788 829.842C-339.972 783.873 -299.208 680.834 -330.627 620.629C-364.38 555.936 -466.584 573.953 -523.299 542.538" stroke="white" stroke-width="0.75" stroke-miterlimit="10"/>
<path d="M137.757 1048.16C85.8623 990.238 113.988 894.029 27.4275 867.037C-16.0355 853.481 -68.1584 853.19 -112.981 849.591C-159.897 845.833 -233.352 849.555 -273.439 818.997C-333.21 773.41 -290.989 669.878 -322.461 609.785C-356.655 544.462 -458.486 563.937 -515.482 531.92" stroke="white" stroke-width="0.75" stroke-miterlimit="10"/>
<path d="M147.371 1037.81C96.6706 980.324 117.589 885.705 33.3152 859.591C-10.3716 846.051 -61.0538 843.982 -106.102 839.095C-152.44 834.068 -226.533 836.077 -266.129 806.246C-324.794 762.025 -283.681 658.518 -313.862 599.625C-347.617 533.75 -450.45 553.391 -507.548 521.267" stroke="white" stroke-width="0.75" stroke-miterlimit="10"/>
<path d="M158.364 1027.73C107.541 971.184 119.673 880.284 38.02 853.904C-5.61128 839.799 -54.9915 835.484 -100.054 828.86C-145.987 822.105 -220.219 821.526 -259.207 791.813C-316.321 748.319 -275.76 647.189 -304.675 589.448C-337.833 523.258 -442.549 542.743 -499.658 510.673" stroke="white" stroke-width="0.75" stroke-miterlimit="10"/>
<path d="M170.509 1017.81C118.707 962.747 120.459 877.02 41.8064 849.534C-1.56273 834.382 -49.7108 827.467 -94.5894 818.677C-140.257 809.726 -214.034 805.88 -252.425 775.853C-307.659 732.602 -267.291 635.813 -295.038 579.15C-327.52 512.826 -434.831 531.93 -491.793 500.03" stroke="white" stroke-width="0.75" stroke-miterlimit="10"/>
<path d="M183.532 1008.05C130.237 955.004 120.299 875.356 44.952 846.233C2.02776 829.624 -44.8895 819.867 -89.3868 808.603C-134.824 797.096 -207.662 789.494 -245.434 758.714C-298.748 715.283 -257.926 624.374 -284.918 568.817C-317.117 502.52 -426.854 521.218 -483.922 489.421" stroke="white" stroke-width="0.75" stroke-miterlimit="10"/>
<path d="M197.143 998.402C142.109 947.819 119.6 874.747 47.6773 843.621C5.31341 825.276 -40.3497 812.482 -84.2237 798.5C-129.413 784.087 -200.813 772.463 -238.006 740.659C-290.608 695.696 -244.948 612.556 -274.463 558.399C-310.633 491.942 -416.33 511.851 -476.037 478.792" stroke="white" stroke-width="0.75" stroke-miterlimit="10"/>
<path d="M211.057 988.794C157.258 943.609 122.901 878.832 59.3361 845.788C6.48903 818.304 -51.2958 799.393 -106.595 777.541C-143.778 762.828 -197.652 749.424 -227.582 721.343C-279.463 672.674 -231.919 597.444 -266.67 542.098C-304.458 481.864 -410.713 500.116 -468.151 468.164" stroke="white" stroke-width="0.75" stroke-miterlimit="10"/>
<path d="M225.078 979.204C168.919 935.933 123.921 879.376 61.8427 844.043C9.81181 814.438 -45.9676 790.987 -100.026 765.421C-136.79 748.02 -188.733 731.565 -218.507 702.661C-267.776 654.839 -222.426 585.343 -255.703 531.848C-293.179 471.602 -402.765 489.322 -460.246 457.55" stroke="white" stroke-width="0.75" stroke-miterlimit="10"/>
<path d="M238.851 969.581C180.18 927.9 125.841 880.013 64.6005 842C13.4683 810.244 -40.1349 782.349 -92.7185 753.121C-129.025 732.94 -178.541 713.622 -208.353 683.871C-255.159 637.18 -212.72 573.036 -244.78 521.534C-282.251 461.322 -394.754 478.605 -452.395 446.927" stroke="white" stroke-width="0.75" stroke-miterlimit="10"/>
<path d="M252.175 959.867C190.946 919.348 128.805 880.303 67.9187 839.282C17.754 805.487 -33.5067 773.333 -84.3811 740.617C-120.089 717.67 -166.787 695.777 -196.817 665.258C-241.436 619.947 -202.748 560.533 -233.897 511.191C-271.874 450.967 -386.474 468.057 -444.53 436.284" stroke="white" stroke-width="0.75" stroke-miterlimit="10"/>
<path d="M264.769 950.037C201.277 910.201 132.835 879.689 72.0452 835.558C22.9606 799.899 -25.8051 763.811 -74.7302 727.937C-109.688 702.304 -153.22 678.186 -183.667 647.086C-226.454 603.347 -192.532 547.908 -223.173 500.821C-262.411 440.541 -377.721 457.77 -436.624 425.671" stroke="white" stroke-width="0.75" stroke-miterlimit="10"/>
<path d="M276.331 940.046C211.155 900.355 137.874 877.551 77.205 830.48C-4.0392 767.418 -96.4718 702.78 -168.641 629.608C-209.978 587.671 -182.001 535.183 -212.747 490.442C-254.229 430.042 -368.475 447.878 -428.749 415.095" stroke="white" stroke-width="0.75" stroke-miterlimit="10"/>
<path d="M286.622 929.809C223.505 891.221 149.064 875.614 90.5495 829.355C6.90567 763.24 -76.5728 686.736 -152.918 612.375C-193.987 572.364 -171.329 516.838 -206.353 475.618C-254.04 419.458 -358.9 438.443 -420.888 404.418" stroke="white" stroke-width="0.75" stroke-miterlimit="10"/>
<path d="M295.364 919.332C232.469 879.425 156.368 868.342 98.2344 820.426C16.2178 752.852 -55.2049 669.693 -132.898 597.149C-174.027 558.729 -160.69 504.376 -197.119 465.172C-248.915 409.448 -348.731 429.146 -412.964 393.819" stroke="white" stroke-width="0.75" stroke-miterlimit="10"/>
<path d="M302.565 908.196C239.419 869.526 163.507 854.554 105.833 807.04C25.9612 741.27 -47.1027 662.528 -121.76 590.873C-162.381 551.89 -154.215 494.791 -191.307 455.459C-242.756 400.901 -341.231 417.322 -405.098 383.176" stroke="white" stroke-width="0.75" stroke-miterlimit="10"/>
<path d="M308.531 896.113C242.736 855.993 166.069 834.282 106.635 784.28C32.8983 722.244 -40.1822 654.425 -109.042 587.04C-149.145 547.807 -148.643 492.261 -184.174 451.603C-234.481 394.076 -332.596 406.826 -397.208 372.582" stroke="white" stroke-width="0.75" stroke-miterlimit="10"/>
<path d="M313.49 883.223C248.001 842.118 174.39 812.859 113.883 764.304C42.6434 707.149 -31.0057 646.996 -97.0653 583.961C-138.903 544.046 -145.129 485.932 -183.097 444.435C-234.11 388.717 -325.355 396.659 -389.323 361.954" stroke="white" stroke-width="0.75" stroke-miterlimit="10"/>
<path d="M317.629 869.724C180.371 779.16 37.3117 693.107 -84.8456 581.698C-129.397 541.072 -142.762 480.782 -183.738 438.114C-235.118 384.606 -318.824 386.752 -381.471 351.33" stroke="white" stroke-width="0.75" stroke-miterlimit="10"/>
<path d="M321.196 855.771C256.463 810.26 193.328 762.511 127.991 717.854C62.0925 672.81 -11.6962 631.788 -72.2885 579.837C-120.253 538.708 -142.607 477.838 -185.544 432.382C-234.6 380.478 -313.896 376.354 -373.586 340.702" stroke="white" stroke-width="0.75" stroke-miterlimit="10"/>
<path d="M324.392 841.543C260.457 793.322 203.435 734.477 134.993 692.575C71.813 653.911 -1.42209 624.022 -59.435 577.862C-111.356 536.555 -141.999 474.079 -188.15 426.995C-236.493 377.68 -308.629 366.479 -365.716 330.093" stroke="white" stroke-width="0.75" stroke-miterlimit="10"/>
<path d="M327.427 827.164C264.944 776.537 213.272 705.092 141.997 666.723C81.4028 634.126 9.44989 616.064 -46.263 575.336C-102.464 534.246 -141.289 470.061 -191.038 421.702C-238.679 375.361 -303.606 356.483 -357.83 319.465" stroke="white" stroke-width="0.75" stroke-miterlimit="10"/>
<path d="M330.486 812.834C268.498 758.969 219.357 670.925 142.487 638.098C86.9639 614.383 16.5818 608.451 -33.1456 573.618C-90.4951 533.463 -136.984 470.014 -187.875 421.807C-236.419 375.826 -296.328 347.979 -349.931 308.817" stroke="white" stroke-width="0.75" stroke-miterlimit="10"/>
<path d="M333.819 798.707C273.055 742.66 228.416 644.629 149.76 613.475C96.503 592.38 29.9106 600.528 -19.1438 568.83C-80.5972 529.144 -134.739 464.743 -189.642 415.983C-237.795 373.23 -291.355 337.765 -342.074 298.227" stroke="white" stroke-width="0.75" stroke-miterlimit="10"/>
<path d="M337.64 784.943C279.512 728.731 236.628 616.25 157.194 589.941C105.427 572.799 43.6147 590.916 -4.83222 561.909C-70.1701 522.764 -131.469 458.415 -190.372 409.414C-238.667 369.221 -285.672 327.533 -334.17 287.614" stroke="white" stroke-width="0.75" stroke-miterlimit="10"/>
<path d="M342.15 771.719C286.218 715.895 244.451 590.641 164.807 568.084C114.095 553.725 58.1769 579.697 9.7627 552.321C-59.2039 513.331 -126.73 450.844 -189.632 401.844C-238.853 363.51 -279.044 317.334 -326.27 276.966" stroke="white" stroke-width="0.75" stroke-miterlimit="10"/>
<path d="M347.544 759.182C310.468 721.709 286.174 679.907 258.383 635.51C237.264 601.758 214.047 559.239 172.612 548.461C122.642 535.469 73.2298 566.39 24.59 539.603C-47.6353 499.862 -120.004 441.779 -187.06 393.029C-237.962 356.023 -271.527 307.039 -318.419 266.343" stroke="white" stroke-width="0.75" stroke-miterlimit="10"/>
<path d="M354.057 747.506C316.126 709.55 292.982 666.934 265.656 621.216C245.687 587.833 221.58 542.716 180.675 531.633C131.399 518.278 88.3953 550.44 39.6609 523.25C-35.1242 481.488 -110.928 430.853 -182.146 382.772C-235.167 346.949 -263.14 296.389 -310.562 255.753" stroke="white" stroke-width="0.75" stroke-miterlimit="10"/>
<path d="M361.903 736.848C323.734 698.928 300.832 656.189 273.549 610.291C253.771 577.018 229.181 531.574 188.825 519.626C140.303 505.256 99.8132 535.254 51.5988 507.934C-23.9703 465.106 -101.121 419.348 -174.279 372.251C-228.752 337.199 -254.671 285.83 -302.663 245.106" stroke="white" stroke-width="0.75" stroke-miterlimit="10"/>
<path d="M371.049 727.215C333.455 689.54 309.704 647.292 282.109 602.223C261.767 569.016 237.329 524.714 197.141 512.377C149.299 497.662 107.711 524.119 60.2316 497.89C-14.7413 456.504 -90.7899 412.2 -163.613 366.896C-220.193 331.704 -246.268 277.524 -294.772 234.511" stroke="white" stroke-width="0.75" stroke-miterlimit="10"/>
<path d="M381.347 718.438C324.248 661.657 286.18 534.028 205.913 507.495C158.902 491.944 116.199 513.332 69.5186 488.272C-4.16052 448.694 -78.6192 407.962 -150.824 365.661C-210.901 330.449 -237.532 270.405 -286.872 223.863" stroke="white" stroke-width="0.75" stroke-miterlimit="10"/>
<path d="M392.554 710.395C334.15 653.494 294.872 533.662 215.04 504.664C169.001 487.925 125.126 502.931 79.3232 479.098C7.57241 441.738 -65.1734 405.76 -136.385 367.347C-200.468 332.798 -229.024 263.631 -279.021 213.24" stroke="white" stroke-width="0.75" stroke-miterlimit="10"/>
<path d="M404.464 702.874C344.314 646.041 303.736 535.391 224.437 503.306C179.842 485.275 134.456 491.376 89.5478 470.174C19.4588 437.107 -50.9782 404.509 -120.687 370.602C-188.504 337.615 -220.912 256.412 -271.122 202.592" stroke="white" stroke-width="0.75" stroke-miterlimit="10"/>
<path d="M416.848 695.734C354.72 639.281 312.48 538.425 234.016 503.051C190.599 483.472 143.929 482.077 100.002 461.513C33.0356 430.156 -36.3585 403.541 -104.239 374.233C-175.069 343.675 -213.266 248.393 -263.266 192.002" stroke="white" stroke-width="0.75" stroke-miterlimit="10"/>
<path d="M429.525 688.813C366.384 634.092 323.345 547.091 249.192 506.314C206.144 482.646 155.157 476.17 110.484 454.447C44.6919 422.447 -28.1843 405.547 -94.2698 374.268C-163.535 341.479 -206.198 238.824 -255.38 181.374" stroke="white" stroke-width="0.75" stroke-miterlimit="10"/>
<path d="M442.261 681.935C377.896 628.578 331.49 549.954 258.878 507.018C216.553 482.008 165.701 467.756 121.243 446.314C58.1348 415.881 -13.1974 403.065 -77.3691 374.963C-116.174 357.987 -137.308 319.438 -161.143 285.549C-188.874 246.134 -216.512 207.697 -247.5 170.712" stroke="white" stroke-width="0.75" stroke-miterlimit="10"/>
<path d="M454.86 674.955C389.598 623.174 339.387 552.087 268.538 507.429C226.57 480.958 176.543 459.715 131.962 438.03C71.6229 408.682 -1.99521 403.561 -60.9689 372.045C-135.559 332.185 -185.309 225.121 -239.59 160.132" stroke="white" stroke-width="0.75" stroke-miterlimit="10"/>
<path d="M467.103 667.68C401.309 617.474 347.142 553.024 278.057 507.01C236.037 479.016 187.45 451.995 142.422 429.403C83.7898 399.959 12.1518 394.822 -45.5918 364.098C-121.684 323.608 -175.785 215.346 -231.685 149.518" stroke="white" stroke-width="0.75" stroke-miterlimit="10"/>
<path d="M478.759 659.971C369.716 579.223 273.295 484.727 152.494 420.276C94.9847 389.605 25.2417 381.178 -31.7123 349.799C-108.495 307.464 -165.623 204.71 -223.834 138.895" stroke="white" stroke-width="0.75" stroke-miterlimit="10"/>
<path d="M489.615 651.667C380.492 572.374 279.393 476.468 162.074 408.754C103.433 374.911 32.0809 361.02 -25.5082 325.352C-98.9698 279.847 -156.592 190.66 -215.963 128.286" stroke="white" stroke-width="0.75" stroke-miterlimit="10"/>
<path d="M499.483 642.571C389.569 562.752 285.024 473.164 171.111 398.98C111.374 360.083 43.0804 333.619 -15.9176 293.604C-86.4526 245.787 -145.742 175.628 -208.078 117.658" stroke="white" stroke-width="0.75" stroke-miterlimit="10"/>
<path d="M508.135 632.542C271.852 457.605 34.2542 284.359 -200.212 107.015" stroke="white" stroke-width="0.75" stroke-miterlimit="10"/>
</g>
</svg>
