<svg width="201" height="200" viewBox="0 0 201 200" fill="none" xmlns="http://www.w3.org/2000/svg">
<mask id="mask0_36_1037" style="mask-type:luminance" maskUnits="userSpaceOnUse" x="0" y="0" width="201" height="200">
<path d="M100.021 200C155.262 200 200.043 155.229 200.043 100C200.043 44.7715 155.262 0 100.021 0C44.7811 0 0 44.7715 0 100C0 155.229 44.7811 200 100.021 200Z" fill="white"/>
</mask>
<g mask="url(#mask0_36_1037)">
<path d="M-26.3438 37.7314L233.566 -41.543" stroke="white" stroke-opacity="0.81" stroke-width="0.25" stroke-miterlimit="10"/>
</g>
<mask id="mask1_36_1037" style="mask-type:luminance" maskUnits="userSpaceOnUse" x="0" y="0" width="201" height="200">
<path d="M100.021 200C155.262 200 200.043 155.229 200.043 100C200.043 44.7715 155.262 0 100.021 0C44.7811 0 0 44.7715 0 100C0 155.229 44.7811 200 100.021 200Z" fill="white"/>
</mask>
<g mask="url(#mask1_36_1037)">
<path d="M-26.3438 46.4505L233.566 -32.8369" stroke="white" stroke-opacity="0.81" stroke-width="0.25" stroke-miterlimit="10"/>
</g>
<mask id="mask2_36_1037" style="mask-type:luminance" maskUnits="userSpaceOnUse" x="0" y="0" width="201" height="200">
<path d="M100.021 200C155.262 200 200.043 155.229 200.043 100C200.043 44.7715 155.262 0 100.021 0C44.7811 0 0 44.7715 0 100C0 155.229 44.7811 200 100.021 200Z" fill="white"/>
</mask>
<g mask="url(#mask2_36_1037)">
<path d="M-26.3438 55.1552L233.566 -24.1191" stroke="white" stroke-opacity="0.81" stroke-width="0.25" stroke-miterlimit="10"/>
</g>
<mask id="mask3_36_1037" style="mask-type:luminance" maskUnits="userSpaceOnUse" x="0" y="0" width="201" height="200">
<path d="M100.021 200C155.262 200 200.043 155.229 200.043 100C200.043 44.7715 155.262 0 100.021 0C44.7811 0 0 44.7715 0 100C0 155.229 44.7811 200 100.021 200Z" fill="white"/>
</mask>
<g mask="url(#mask3_36_1037)">
<path d="M-26.3438 63.8608L233.566 -15.4136" stroke="white" stroke-opacity="0.81" stroke-width="0.25" stroke-miterlimit="10"/>
</g>
<mask id="mask4_36_1037" style="mask-type:luminance" maskUnits="userSpaceOnUse" x="0" y="0" width="201" height="200">
<path d="M100.021 200C155.262 200 200.043 155.229 200.043 100C200.043 44.7715 155.262 0 100.021 0C44.7811 0 0 44.7715 0 100C0 155.229 44.7811 200 100.021 200Z" fill="white"/>
</mask>
<g mask="url(#mask4_36_1037)">
<path d="M-26.3438 72.5663L233.566 -6.70801" stroke="white" stroke-opacity="0.81" stroke-width="0.25" stroke-miterlimit="10"/>
</g>
<mask id="mask5_36_1037" style="mask-type:luminance" maskUnits="userSpaceOnUse" x="0" y="0" width="201" height="200">
<path d="M100.021 200C155.262 200 200.043 155.229 200.043 100C200.043 44.7715 155.262 0 100.021 0C44.7811 0 0 44.7715 0 100C0 155.229 44.7811 200 100.021 200Z" fill="white"/>
</mask>
<g mask="url(#mask5_36_1037)">
<path d="M-26.3438 81.2709L233.566 1.99658" stroke="white" stroke-opacity="0.81" stroke-width="0.25" stroke-miterlimit="10"/>
</g>
<mask id="mask6_36_1037" style="mask-type:luminance" maskUnits="userSpaceOnUse" x="0" y="0" width="201" height="200">
<path d="M100.021 200C155.262 200 200.043 155.229 200.043 100C200.043 44.7715 155.262 0 100.021 0C44.7811 0 0 44.7715 0 100C0 155.229 44.7811 200 100.021 200Z" fill="white"/>
</mask>
<g mask="url(#mask6_36_1037)">
<path d="M-26.3438 89.9897L233.566 10.7153" stroke="white" stroke-opacity="0.81" stroke-width="0.25" stroke-miterlimit="10"/>
</g>
<mask id="mask7_36_1037" style="mask-type:luminance" maskUnits="userSpaceOnUse" x="0" y="0" width="201" height="200">
<path d="M100.021 200C155.262 200 200.043 155.229 200.043 100C200.043 44.7715 155.262 0 100.021 0C44.7811 0 0 44.7715 0 100C0 155.229 44.7811 200 100.021 200Z" fill="white"/>
</mask>
<g mask="url(#mask7_36_1037)">
<path d="M-26.3438 98.6943L233.566 19.4199" stroke="white" stroke-opacity="0.81" stroke-width="0.25" stroke-miterlimit="10"/>
</g>
<mask id="mask8_36_1037" style="mask-type:luminance" maskUnits="userSpaceOnUse" x="0" y="0" width="201" height="200">
<path d="M100.021 200C155.262 200 200.043 155.229 200.043 100C200.043 44.7715 155.262 0 100.021 0C44.7811 0 0 44.7715 0 100C0 155.229 44.7811 200 100.021 200Z" fill="white"/>
</mask>
<g mask="url(#mask8_36_1037)">
<path d="M-26.3438 107.4L233.566 28.1255" stroke="white" stroke-opacity="0.81" stroke-width="0.25" stroke-miterlimit="10"/>
</g>
<mask id="mask9_36_1037" style="mask-type:luminance" maskUnits="userSpaceOnUse" x="0" y="0" width="201" height="200">
<path d="M100.021 200C155.262 200 200.043 155.229 200.043 100C200.043 44.7715 155.262 0 100.021 0C44.7811 0 0 44.7715 0 100C0 155.229 44.7811 200 100.021 200Z" fill="white"/>
</mask>
<g mask="url(#mask9_36_1037)">
<path d="M-26.3438 116.105L233.566 36.8311" stroke="white" stroke-opacity="0.81" stroke-width="0.25" stroke-miterlimit="10"/>
</g>
<mask id="mask10_36_1037" style="mask-type:luminance" maskUnits="userSpaceOnUse" x="0" y="0" width="201" height="200">
<path d="M100.021 200C155.262 200 200.043 155.229 200.043 100C200.043 44.7715 155.262 0 100.021 0C44.7811 0 0 44.7715 0 100C0 155.229 44.7811 200 100.021 200Z" fill="white"/>
</mask>
<g mask="url(#mask10_36_1037)">
<path d="M-26.3438 124.824L233.566 45.5361" stroke="white" stroke-opacity="0.81" stroke-width="0.25" stroke-miterlimit="10"/>
</g>
<mask id="mask11_36_1037" style="mask-type:luminance" maskUnits="userSpaceOnUse" x="0" y="0" width="201" height="200">
<path d="M100.021 200C155.262 200 200.043 155.229 200.043 100C200.043 44.7715 155.262 0 100.021 0C44.7811 0 0 44.7715 0 100C0 155.229 44.7811 200 100.021 200Z" fill="white"/>
</mask>
<g mask="url(#mask11_36_1037)">
<path d="M-26.3438 133.529L233.566 54.2549" stroke="white" stroke-opacity="0.81" stroke-width="0.25" stroke-miterlimit="10"/>
</g>
<mask id="mask12_36_1037" style="mask-type:luminance" maskUnits="userSpaceOnUse" x="0" y="0" width="201" height="200">
<path d="M100.021 200C155.262 200 200.043 155.229 200.043 100C200.043 44.7715 155.262 0 100.021 0C44.7811 0 0 44.7715 0 100C0 155.229 44.7811 200 100.021 200Z" fill="white"/>
</mask>
<g mask="url(#mask12_36_1037)">
<path d="M-26.3438 142.234L233.566 62.96" stroke="white" stroke-opacity="0.81" stroke-width="0.25" stroke-miterlimit="10"/>
</g>
<mask id="mask13_36_1037" style="mask-type:luminance" maskUnits="userSpaceOnUse" x="0" y="0" width="201" height="200">
<path d="M100.021 200C155.262 200 200.043 155.229 200.043 100C200.043 44.7715 155.262 0 100.021 0C44.7811 0 0 44.7715 0 100C0 155.229 44.7811 200 100.021 200Z" fill="white"/>
</mask>
<g mask="url(#mask13_36_1037)">
<path d="M-26.3438 150.94L233.566 71.6655" stroke="white" stroke-opacity="0.81" stroke-width="0.25" stroke-miterlimit="10"/>
</g>
<mask id="mask14_36_1037" style="mask-type:luminance" maskUnits="userSpaceOnUse" x="0" y="0" width="201" height="200">
<path d="M100.021 200C155.262 200 200.043 155.229 200.043 100C200.043 44.7715 155.262 0 100.021 0C44.7811 0 0 44.7715 0 100C0 155.229 44.7811 200 100.021 200Z" fill="white"/>
</mask>
<g mask="url(#mask14_36_1037)">
<path d="M-26.3438 159.645L233.566 80.3706" stroke="white" stroke-opacity="0.81" stroke-width="0.25" stroke-miterlimit="10"/>
</g>
<mask id="mask15_36_1037" style="mask-type:luminance" maskUnits="userSpaceOnUse" x="0" y="0" width="201" height="200">
<path d="M100.021 200C155.262 200 200.043 155.229 200.043 100C200.043 44.7715 155.262 0 100.021 0C44.7811 0 0 44.7715 0 100C0 155.229 44.7811 200 100.021 200Z" fill="white"/>
</mask>
<g mask="url(#mask15_36_1037)">
<path d="M-26.3438 168.363L233.566 89.0889" stroke="white" stroke-opacity="0.81" stroke-width="0.25" stroke-miterlimit="10"/>
</g>
<mask id="mask16_36_1037" style="mask-type:luminance" maskUnits="userSpaceOnUse" x="0" y="0" width="201" height="200">
<path d="M100.021 200C155.262 200 200.043 155.229 200.043 100C200.043 44.7715 155.262 0 100.021 0C44.7811 0 0 44.7715 0 100C0 155.229 44.7811 200 100.021 200Z" fill="white"/>
</mask>
<g mask="url(#mask16_36_1037)">
<path d="M-26.3438 177.069L233.566 97.7944" stroke="white" stroke-opacity="0.81" stroke-width="0.25" stroke-miterlimit="10"/>
</g>
<mask id="mask17_36_1037" style="mask-type:luminance" maskUnits="userSpaceOnUse" x="0" y="0" width="201" height="200">
<path d="M100.021 200C155.262 200 200.043 155.229 200.043 100C200.043 44.7715 155.262 0 100.021 0C44.7811 0 0 44.7715 0 100C0 155.229 44.7811 200 100.021 200Z" fill="white"/>
</mask>
<g mask="url(#mask17_36_1037)">
<path d="M-26.3438 185.774L233.566 106.5" stroke="white" stroke-opacity="0.81" stroke-width="0.25" stroke-miterlimit="10"/>
</g>
<mask id="mask18_36_1037" style="mask-type:luminance" maskUnits="userSpaceOnUse" x="0" y="0" width="201" height="200">
<path d="M100.021 200C155.262 200 200.043 155.229 200.043 100C200.043 44.7715 155.262 0 100.021 0C44.7811 0 0 44.7715 0 100C0 155.229 44.7811 200 100.021 200Z" fill="white"/>
</mask>
<g mask="url(#mask18_36_1037)">
<path d="M-26.3438 194.479L233.566 115.205" stroke="white" stroke-opacity="0.81" stroke-width="0.25" stroke-miterlimit="10"/>
</g>
<mask id="mask19_36_1037" style="mask-type:luminance" maskUnits="userSpaceOnUse" x="0" y="0" width="201" height="200">
<path d="M100.021 200C155.262 200 200.043 155.229 200.043 100C200.043 44.7715 155.262 0 100.021 0C44.7811 0 0 44.7715 0 100C0 155.229 44.7811 200 100.021 200Z" fill="white"/>
</mask>
<g mask="url(#mask19_36_1037)">
<path d="M-26.3438 203.198L233.566 123.923" stroke="white" stroke-opacity="0.81" stroke-width="0.25" stroke-miterlimit="10"/>
</g>
<mask id="mask20_36_1037" style="mask-type:luminance" maskUnits="userSpaceOnUse" x="0" y="0" width="201" height="200">
<path d="M100.021 200C155.262 200 200.043 155.229 200.043 100C200.043 44.7715 155.262 0 100.021 0C44.7811 0 0 44.7715 0 100C0 155.229 44.7811 200 100.021 200Z" fill="white"/>
</mask>
<g mask="url(#mask20_36_1037)">
<path d="M-26.3438 211.903L233.566 132.629" stroke="white" stroke-opacity="0.81" stroke-width="0.25" stroke-miterlimit="10"/>
</g>
<mask id="mask21_36_1037" style="mask-type:luminance" maskUnits="userSpaceOnUse" x="0" y="0" width="201" height="200">
<path d="M100.021 200C155.262 200 200.043 155.229 200.043 100C200.043 44.7715 155.262 0 100.021 0C44.7811 0 0 44.7715 0 100C0 155.229 44.7811 200 100.021 200Z" fill="white"/>
</mask>
<g mask="url(#mask21_36_1037)">
<path d="M-26.3438 220.608L233.566 141.334" stroke="white" stroke-opacity="0.81" stroke-width="0.25" stroke-miterlimit="10"/>
</g>
<mask id="mask22_36_1037" style="mask-type:luminance" maskUnits="userSpaceOnUse" x="0" y="0" width="201" height="200">
<path d="M100.021 200C155.262 200 200.043 155.229 200.043 100C200.043 44.7715 155.262 0 100.021 0C44.7811 0 0 44.7715 0 100C0 155.229 44.7811 200 100.021 200Z" fill="white"/>
</mask>
<g mask="url(#mask22_36_1037)">
<path d="M-26.3438 229.314L233.566 150.039" stroke="white" stroke-opacity="0.81" stroke-width="0.25" stroke-miterlimit="10"/>
</g>
<mask id="mask23_36_1037" style="mask-type:luminance" maskUnits="userSpaceOnUse" x="0" y="0" width="201" height="200">
<path d="M100.021 200C155.262 200 200.043 155.229 200.043 100C200.043 44.7715 155.262 0 100.021 0C44.7811 0 0 44.7715 0 100C0 155.229 44.7811 200 100.021 200Z" fill="white"/>
</mask>
<g mask="url(#mask23_36_1037)">
<path d="M-26.3438 238.032L233.566 158.744" stroke="white" stroke-opacity="0.81" stroke-width="0.25" stroke-miterlimit="10"/>
</g>
</svg>
