<svg width="1440" height="923" viewBox="0 0 1440 923" fill="none" xmlns="http://www.w3.org/2000/svg">
<path d="M1436.4 65.241C1299.43 73.4662 1146.65 13.7237 1013.84 58.9595C907.597 95.1551 826.384 190.881 712.393 206.898C592.005 223.785 476.679 156.84 356.694 160.171C221.511 163.909 112.047 269.667 -17.6176 298.233" stroke="white" stroke-width="0.25" stroke-miterlimit="10"/>
<path d="M4.54834 325.993C129.615 295.621 239.691 193.908 370.604 189.851C486.467 186.253 599.191 246.308 715.309 229.954C826.29 214.314 914.077 129.957 1018.88 96.18C1151.37 53.4726 1303.6 103.154 1440.17 95.4408" stroke="white" stroke-width="0.25" stroke-miterlimit="10"/>
<path d="M23.9722 342.048C148.33 313.967 258.307 230.819 386.093 219.085C497.468 208.868 605.201 256.859 716.865 242.697C828.633 228.521 925.532 162.751 1034.33 137.325C1166.86 106.34 1309.09 136.018 1443.91 125.645" stroke="white" stroke-width="0.25" stroke-miterlimit="10"/>
<path d="M39.9317 353.417C168.371 328.985 285.597 260.32 416.104 246.754C517.346 236.239 617.017 264.943 718.552 253.646C828.33 241.46 932.397 201.77 1041.16 184.309C1175.57 162.72 1312.57 170.343 1447.72 155.876" stroke="white" stroke-width="0.25" stroke-miterlimit="10"/>
<path d="M51.5684 367.175C183.962 345.66 308.349 290.21 441.876 274.916C534.573 264.296 627.491 277.069 720.511 267.617C963.955 242.963 1208.91 217.304 1451.53 186.071" stroke="white" stroke-width="0.25" stroke-miterlimit="10"/>
<path d="M58.0979 390.42C191.966 368.757 320.329 320.096 455.177 304.565C544.186 294.299 633.959 299.824 723.178 290.669C967.558 265.543 1211.15 246.878 1455.24 216.35" stroke="white" stroke-width="0.25" stroke-miterlimit="10"/>
<path d="M55.2288 421.52C186.564 400.636 310.193 346.524 442.595 331.619C538.399 320.824 633.11 342.543 729.386 332.684C969.08 308.179 1210.89 281.277 1449.79 250.403" stroke="white" stroke-width="0.25" stroke-miterlimit="10"/>
<path d="M43.2689 453.828C170.653 431.198 289.463 360.985 419.475 355.121C527.573 350.254 628.559 400.012 737.444 389.217C844.12 378.663 942.815 331.825 1047.49 311.818C1174.25 287.596 1303.98 302.808 1431.75 289.761" stroke="white" stroke-width="0.25" stroke-miterlimit="10"/>
<path d="M28.293 486.476C147.584 462.227 257.142 377.994 380.31 378.814C505.575 379.621 620.523 465.734 747.049 451.314C855.982 438.915 946.556 361.211 1049.95 330.667C1166.48 296.243 1290.49 338.256 1409.47 330.891" stroke="white" stroke-width="0.25" stroke-miterlimit="10"/>
<path d="M16.3676 518.78C129.971 493.393 229.165 398.762 347.862 403.339C486.851 408.722 615.009 525.171 755.719 508.197C867.925 494.678 950.058 389.81 1052.59 350.915C1162.68 309.121 1278.79 373.73 1391.49 370.206" stroke="white" stroke-width="0.25" stroke-miterlimit="10"/>
<path d="M13.5689 549.871C126.074 525.084 217.345 425.649 335.46 430.406C481.511 436.257 613.495 567.972 761.534 549.621C878.457 535.157 950.471 417.018 1055.61 375.415C1166.52 331.53 1273.86 408.321 1386.08 404.254" stroke="white" stroke-width="0.25" stroke-miterlimit="10"/>
<path d="M17.3415 580.071C130.599 555.048 224.67 456.401 343.354 461.157C487.366 466.908 618.305 594.524 764.248 576.471C878.756 562.309 956.216 451.343 1060.11 411.105C1169.36 368.812 1286.97 434.121 1399.04 430.641" stroke="white" stroke-width="0.25" stroke-miterlimit="10"/>
<path d="M21.1185 610.306C134.302 586.109 227.943 495.122 345.39 491.965C491.503 488.071 617.892 613.697 765.034 597.555C881.947 584.727 965.519 481.989 1075.52 449.092C1187.23 415.661 1310.16 459.016 1424.57 451.761" stroke="white" stroke-width="0.25" stroke-miterlimit="10"/>
<path d="M24.891 640.506C141.277 616.336 239.937 527.387 360.205 523.202C501.531 518.271 623.446 632.265 765.954 618.586C880.746 607.551 971.054 520.605 1080.88 492.883C1201.22 462.532 1331.63 483.701 1454.36 471.07" stroke="white" stroke-width="0.25" stroke-miterlimit="10"/>
<path d="M28.6678 670.741C149.306 646.466 258.091 551.773 383.57 553.158C516.63 554.626 632.435 652.999 767.365 641.546C876.828 632.243 971.557 563.332 1076.77 537.394C1206.92 505.285 1347.35 509.387 1479.96 492.181" stroke="white" stroke-width="0.25" stroke-miterlimit="10"/>
<path d="M32.4403 700.941C153.971 676.412 265.311 582.538 391.612 583.962C522.507 585.452 637.362 679.643 770.035 668.33C878.26 659.075 976.475 597.583 1081.22 573.018C1214.39 541.776 1357.39 535.463 1492.99 518.489" stroke="white" stroke-width="0.25" stroke-miterlimit="10"/>
<path d="M37.9015 731.854C160.027 708.672 266.817 613.661 393.661 615.443C523.816 617.274 641.503 703.684 773.06 692.546C881.718 683.344 980.427 621.257 1085.48 596.298C1219.74 564.422 1361.36 574.026 1497.65 555.792" stroke="white" stroke-width="0.25" stroke-miterlimit="10"/>
<path d="M47.3087 764.762C168.844 742.542 267.119 648.239 393.403 647.533C523.1 646.826 644.485 721.011 775.027 708.293C884.989 697.578 983.711 635.311 1090.17 609.964C1226.18 577.549 1365.84 615.297 1503.56 603.104" stroke="white" stroke-width="0.25" stroke-miterlimit="10"/>
<path d="M61.454 800.596C180.758 778.442 268.069 684.016 392.363 679.897C521.824 675.595 646.806 736.181 776.64 721.206C888.041 708.356 986.882 646.181 1095.03 620.374C1234.9 587.015 1369.52 657.307 1509.92 653.771" stroke="white" stroke-width="0.25" stroke-miterlimit="10"/>
<path d="M81.1509 840.179C196.766 816.674 270.568 718.817 392.105 711.987C521.518 704.741 649.211 753.437 778.59 736.813C891.142 722.362 990.284 660.043 1099.7 633.865C1244.88 599.132 1372.04 698.22 1515.8 701.158" stroke="white" stroke-width="0.25" stroke-miterlimit="10"/>
<path d="M107.196 884.479C214.508 857.959 270.896 756.733 383.715 744.701C516.248 730.562 648.696 777.207 781.422 760.342C897.977 745.498 999.698 679.339 1113.55 654.206C1258.26 622.303 1377.74 736.459 1520.51 738.811" stroke="white" stroke-width="0.25" stroke-miterlimit="10"/>
<path d="M-17.622 298.198C12.7728 333.211 54.3127 353.007 58.464 401.889C62.6328 450.911 16.4 499.121 13.5334 549.875C7.03733 665.197 51.9047 787.324 107.161 884.483" stroke="white" stroke-width="0.25" stroke-miterlimit="10"/>
<path d="M12.4226 292.561C42.078 327.631 85.4553 348.761 89.5453 397.437C93.6922 446.569 45.4908 493.533 42.5147 544.549C35.9095 658.143 82.2161 782.685 135.491 878.776" stroke="white" stroke-width="0.25" stroke-miterlimit="10"/>
<path d="M41.8284 283.806C70.7312 319.112 117.446 342.774 120.911 391.565C124.423 441.024 72.3414 485.096 68.9409 536.699C61.7586 646.243 110.72 776.672 160.053 869.95" stroke="white" stroke-width="0.25" stroke-miterlimit="10"/>
<path d="M70.7063 272.522C100.108 308.974 159.361 340.524 151.1 394.475C143.46 444.297 97.4216 473.86 94.546 526.535C88.7465 633.489 136.207 765.562 181.721 858.43" stroke="white" stroke-width="0.25" stroke-miterlimit="10"/>
<path d="M99.2466 259.396C127.651 295.83 193.112 332.682 182.553 386.459C172.691 436.701 121.556 461.32 117.867 515.163C114.957 557.89 135.047 604.603 142.363 646.373C154.881 717.845 171.356 778.302 201.2 845.05" stroke="white" stroke-width="0.25" stroke-miterlimit="10"/>
<path d="M127.525 245.024C154.975 281.506 227.156 324.343 214.033 377.799C201.594 428.47 144.934 447.561 140.242 502.772C136.607 545.661 160.433 592.69 168.44 634.302C181.724 703.367 192.883 764.24 219.131 830.371" stroke="white" stroke-width="0.25" stroke-miterlimit="10"/>
<path d="M155.655 230.03C182.221 266.552 261.288 315.849 245.518 368.891C230.353 419.937 167.919 433.21 162.138 489.943C157.749 533.068 185.574 580.237 194.215 621.806C207.994 688.286 214.074 750.042 236.345 815.07" stroke="white" stroke-width="0.25" stroke-miterlimit="10"/>
<path d="M183.819 215.033C209.58 251.655 295.287 307.444 277.068 359.938C259.204 411.286 190.999 418.776 184.137 477.102C179.04 520.529 210.855 567.768 220.1 609.332C234.295 673.166 235.583 736.124 253.633 799.797" stroke="white" stroke-width="0.25" stroke-miterlimit="10"/>
<path d="M212.1 200.695C237.136 237.48 329.02 299.463 308.552 351.314C288.194 402.903 214.407 404.977 206.551 464.741C200.78 508.466 236.402 555.727 246.216 597.291C260.717 658.741 257.714 722.911 271.668 785.105" stroke="white" stroke-width="0.25" stroke-miterlimit="10"/>
<path d="M240.641 187.57C265.028 224.577 362.259 292.077 340.001 343.263C317.499 395.048 238.585 392.218 229.872 453.37C223.576 497.444 262.562 544.605 272.883 586.248C287.643 645.782 281.03 710.936 291.152 771.76" stroke="white" stroke-width="0.25" stroke-miterlimit="10"/>
<path d="M269.527 176.356C293.346 213.647 394.863 285.587 371.32 336.152C347.102 388.151 263.831 381.174 254.488 443.542C247.842 487.944 289.519 535.017 300.308 576.709C315.365 634.926 306.013 700.636 312.797 760.348" stroke="white" stroke-width="0.25" stroke-miterlimit="10"/>
<path d="M298.942 167.67C322.196 205.281 426.872 280.309 402.611 330.253C377.252 382.501 290.73 372.27 280.984 435.683C274.12 480.326 317.713 527.373 328.896 569.086C344.295 626.621 333.324 692.462 337.5 751.505" stroke="white" stroke-width="0.25" stroke-miterlimit="10"/>
<path d="M328.995 162.103C351.689 200.068 458.054 276.378 433.736 325.867C407.856 378.501 319.537 366.113 309.756 430.383C302.913 475.201 347.394 522.243 358.861 563.957C374.641 621.409 363.499 687.022 365.917 745.93" stroke="white" stroke-width="0.25" stroke-miterlimit="10"/>
<path d="M359.814 160.101C382.815 198.526 485.137 272.071 461.769 322.045C437.424 374.167 351.865 367.654 342.438 430.209C335.753 474.581 378.502 521.13 389.86 562.537C405.534 619.717 394.918 684.696 397.296 743.289" stroke="white" stroke-width="0.25" stroke-miterlimit="10"/>
<path d="M391.24 161.258C414.446 201.043 509.025 268.66 487.814 319.965C466.226 372.24 385.845 374.462 377.828 435.491C372.031 479.574 411.52 524.504 422.581 565.806C437.638 622.033 428.011 685.253 430.507 742.801" stroke="white" stroke-width="0.25" stroke-miterlimit="10"/>
<path d="M423.188 164.873C446.485 206.814 530.171 266.054 512.319 319.213C494.52 372.224 421.283 385.247 415.384 445.016C411.039 488.775 446.057 531.491 456.65 572.745C470.701 627.463 462.417 688.064 465.137 743.984" stroke="white" stroke-width="0.25" stroke-miterlimit="10"/>
<path d="M455.479 170.399C478.427 214.943 549.036 264.55 535.568 319.508C522.292 373.73 457.853 398.839 454.482 457.795C451.984 501.253 482.164 541.09 491.671 582.48C503.92 635.575 497.723 692.396 500.741 746.431" stroke="white" stroke-width="0.25" stroke-miterlimit="10"/>
<path d="M488.03 177.137C513.75 230.504 571.717 268.541 553.776 332.942C539.854 382.838 493.898 418.468 492.151 473.063C490.957 510.174 515.904 547.964 524.69 583.579C538.042 637.816 533.661 694.375 537.09 749.709" stroke="white" stroke-width="0.25" stroke-miterlimit="10"/>
<path d="M520.698 184.536C543.745 239.267 588.202 271.315 577.293 335.371C568.143 389.042 532.608 433.535 533.801 489.753C534.545 526.159 553.459 561.185 561.16 596.367C572.438 647.949 570 700.995 573.771 753.372" stroke="white" stroke-width="0.25" stroke-miterlimit="10"/>
<path d="M553.402 191.93C572.603 246.324 605.379 276.206 600.809 337.799C596.529 395.447 571.672 447.74 575.416 506.447C580.714 589.269 603.403 673.294 610.461 757.105" stroke="white" stroke-width="0.25" stroke-miterlimit="10"/>
<path d="M585.953 198.667C592.794 252.296 624.305 281.447 624.627 339.8C624.962 401.385 610.583 460.152 616.418 521.938C623.869 600.937 636.955 681.506 646.804 760.348" stroke="white" stroke-width="0.25" stroke-miterlimit="10"/>
<path d="M618.24 204.159C621.853 251.58 645.698 291.357 649.053 340.978C653.456 406.106 648.908 470.149 656.142 535.172C664.569 610.886 672.41 687.313 682.404 762.761" stroke="white" stroke-width="0.25" stroke-miterlimit="10"/>
<path d="M650.153 207.778C652.467 251.63 669.494 296.878 674.429 340.935C682.031 408.898 686.027 477.027 693.978 544.946C702.546 617.799 707.097 691.225 716.995 763.913" stroke="white" stroke-width="0.25" stroke-miterlimit="10"/>
<path d="M681.609 208.895C694.308 392.224 725.802 580.598 750.17 763.429" stroke="white" stroke-width="0.25" stroke-miterlimit="10"/>
<path d="M712.393 206.898C735.483 391.737 758.521 576.155 781.589 760.819" stroke="white" stroke-width="0.25" stroke-miterlimit="10"/>
<path d="M742.49 200.828C765.274 386.06 790.228 570.453 812.124 755.69" stroke="white" stroke-width="0.25" stroke-miterlimit="10"/>
<path d="M771.953 190.821C794.811 376.933 821.594 562.021 842.789 748.198" stroke="white" stroke-width="0.25" stroke-miterlimit="10"/>
<path d="M800.95 177.639C824.175 364.984 852.752 551.341 873.614 738.839" stroke="white" stroke-width="0.25" stroke-miterlimit="10"/>
<path d="M829.542 162.09C854.076 350.8 883.71 539.086 904.473 728.054" stroke="white" stroke-width="0.25" stroke-miterlimit="10"/>
<path d="M857.938 144.966C882.992 335.281 915.397 525.816 935.432 716.367" stroke="white" stroke-width="0.25" stroke-miterlimit="10"/>
<path d="M886.164 127.047C911.739 318.967 946.531 512.118 966.4 704.182" stroke="white" stroke-width="0.25" stroke-miterlimit="10"/>
<path d="M914.425 109.122C940.48 302.618 977.758 498.585 997.404 691.993" stroke="white" stroke-width="0.25" stroke-miterlimit="10"/>
<path d="M942.786 92.0034C957.453 200.026 973.696 307.852 987.348 416.001C998.426 503.823 1019.73 593.281 1028.32 680.276" stroke="white" stroke-width="0.25" stroke-miterlimit="10"/>
<path d="M971.414 76.45C986.095 183.724 1001.86 290.898 1015.46 398.343C1022.3 452.505 1027.77 506.803 1034.78 560.943C1039.6 598.085 1055.74 632.817 1059.26 669.552" stroke="white" stroke-width="0.25" stroke-miterlimit="10"/>
<path d="M1000.37 63.2368C1015.01 169.912 1030.52 276.443 1043.97 383.267C1051.06 439.458 1057.11 495.781 1064.51 551.934C1069.39 588.997 1086.72 623.615 1090.05 660.162" stroke="white" stroke-width="0.25" stroke-miterlimit="10"/>
<path d="M1029.87 53.1909C1044.48 159.372 1059.79 265.395 1073.11 371.738C1080.35 429.439 1086.9 487.262 1094.56 544.875C1099.48 581.72 1117.7 616.334 1120.74 652.632" stroke="white" stroke-width="0.25" stroke-miterlimit="10"/>
<path d="M1059.92 47.0901C1074.49 152.921 1089.72 258.599 1102.96 364.596C1110.28 423.141 1117.14 481.778 1124.91 540.266C1129.76 576.835 1148.56 611.519 1151.24 647.471" stroke="white" stroke-width="0.25" stroke-miterlimit="10"/>
<path d="M1090.57 44.5417C1105.17 150.653 1118.72 256.575 1131.43 362.852C1138.38 420.768 1147.98 478.28 1155.67 536.104C1160.75 574.243 1177.65 608.774 1181.74 646.362" stroke="white" stroke-width="0.25" stroke-miterlimit="10"/>
<path d="M1121.63 44.2152C1136.29 151.065 1145.82 257.241 1157.43 363.798C1167.98 460.749 1199.56 554.504 1212.41 649.994" stroke="white" stroke-width="0.25" stroke-miterlimit="10"/>
<path d="M1152.98 45.6298C1162.63 116.642 1178.89 189.246 1182.99 260.774C1185.01 296.026 1177.98 329.423 1181.29 364.762C1190.57 463.791 1229.13 559.269 1243.2 657.414" stroke="white" stroke-width="0.25" stroke-miterlimit="10"/>
<path d="M1184.57 48.3653C1193.78 116.696 1211.4 188.276 1213.18 257.214C1214.18 295.935 1200.67 330.924 1203.34 369.933C1210.1 468.743 1259.43 568.242 1274.06 667.669" stroke="white" stroke-width="0.25" stroke-miterlimit="10"/>
<path d="M1216.31 52.0062C1225.04 117.375 1243.43 187.758 1243.25 253.778C1243.15 296.475 1221.17 333.09 1224.19 376.321C1227.99 430.968 1265.05 480.644 1278.17 533.275C1289.99 580.666 1296.82 631.631 1304.9 679.844" stroke="white" stroke-width="0.25" stroke-miterlimit="10"/>
<path d="M1248.14 56.0978C1256.36 118.51 1275.02 187.331 1273.33 250.376C1272.05 297.023 1240.42 335.838 1244.51 383.343C1249.03 436.052 1293.54 479.893 1308.25 529.909C1323.28 581.093 1327.69 640.285 1335.87 692.999" stroke="white" stroke-width="0.25" stroke-miterlimit="10"/>
<path d="M1279.96 60.1543C1287.72 119.71 1306.3 186.764 1303.4 246.905C1300.98 297.033 1259 339.098 1264.82 390.294C1270.77 442.47 1323.4 477.336 1338.31 526.437C1355.34 582.455 1358.43 648.208 1366.83 706.084" stroke="white" stroke-width="0.25" stroke-miterlimit="10"/>
<path d="M1311.74 63.8259C1319.31 123.049 1339.16 193.427 1330.61 252.781C1323.58 301.496 1281.27 345.52 1288.22 395.794C1295.68 449.807 1354.49 479.494 1370.8 531.194C1388.82 588.436 1389.61 658.743 1397.72 718.29" stroke="white" stroke-width="0.25" stroke-miterlimit="10"/>
<path d="M1343.33 66.5966C1350.51 123.239 1370.66 193.223 1360.31 249.782C1351.15 299.652 1302.37 348.855 1310.62 400.602C1319.19 454.441 1383.22 476.438 1401.22 527.464C1422.19 586.898 1420.49 666.045 1428.62 728.61" stroke="white" stroke-width="0.25" stroke-miterlimit="10"/>
<path d="M1374.69 68.046C1381.63 123.332 1401.06 191.523 1390.19 246.511C1380.11 297.597 1324.99 350.614 1334.47 403.77C1344.1 457.762 1412.14 472.896 1431.6 523.634C1454.91 584.446 1451.18 671.309 1459.34 736.074" stroke="white" stroke-width="0.25" stroke-miterlimit="10"/>
<path d="M1405.71 67.724C1412.49 122 1431.43 189.045 1420.42 242.913C1409.81 294.847 1350.05 350.646 1360.4 404.76C1370.83 459.15 1441.61 468.895 1462.08 519.791C1486.89 581.552 1481.79 673.563 1490.02 739.777" stroke="white" stroke-width="0.25" stroke-miterlimit="10"/>
<path d="M1436.4 65.241C1443.1 118.887 1461.9 185.7 1451.03 238.947C1440.28 291.538 1378.12 348.242 1388.85 403.091C1399.62 458.006 1471.83 464.409 1492.59 515.908C1517.79 578.439 1512.16 671.688 1520.54 738.772" stroke="white" stroke-width="0.25" stroke-miterlimit="10"/>
</svg>
