<svg width="208" height="105" viewBox="0 0 208 105" fill="none" xmlns="http://www.w3.org/2000/svg">
<g id="Group">
<g id="Group_2">
<path id="Vector" d="M4.75781 41.1436L21.9213 57.1492C32.3975 66.9407 47.581 69.9035 60.9698 64.7689C74.3586 59.6343 89.5421 62.5971 100.018 72.3886C110.494 82.1802 125.678 85.143 139.067 80.0084L139.111 79.9786C152.5 74.844 167.683 77.8068 178.159 87.5984L195.316 103.641" stroke="#6C0AE9" stroke-width="3" stroke-miterlimit="10"/>
</g>
<g id="Group_3">
<path id="Vector_2" d="M12.3965 2L29.56 18.0056C40.0362 27.7971 55.2197 30.76 68.6085 25.6253C81.9973 20.4907 97.1808 23.4536 107.657 33.2451C118.133 43.0366 133.317 45.9994 146.705 40.8648L146.742 40.872C160.131 35.7374 175.314 38.7002 185.791 48.4917L202.947 64.5343" stroke="#6C0AE9" stroke-width="3" stroke-miterlimit="10"/>
</g>
</g>
</svg>
