<svg width="45" height="45" viewBox="0 0 45 45" fill="none" xmlns="http://www.w3.org/2000/svg">
<g id="cib:codewars" clip-path="url(#clip0_34_41)">
<path id="Vector" d="M1.42898 22.8741L1.2757 22.801C0.93725 22.61 0.664272 22.3213 0.492422 21.9727C0.246134 21.5447 0.114843 21.0603 0.111328 20.5665L0.147891 20.3246C0.147891 19.9505 0.243516 19.6144 0.412266 19.2924L0.565547 19.014C0.638672 18.8607 0.748359 18.7285 0.843984 18.6033C0.895946 18.5413 0.931845 18.4674 0.948521 18.3882C0.965197 18.309 0.962136 18.2269 0.939609 18.1491L0.843984 17.8482C0.729935 17.4852 0.668374 17.1078 0.661172 16.7274L0.602109 16.501C0.602109 16.0833 0.711797 15.6727 0.976172 15.3732L1.16602 15.1313C1.2982 14.9415 1.50352 14.8304 1.72992 14.7573C1.91273 14.6982 2.04492 14.5083 2.06742 14.289L2.10398 13.6519C2.10398 13.1471 2.34586 12.6774 2.71992 12.3329L3.17414 11.9954C3.26273 11.9068 3.35695 11.8126 3.43008 11.6579C3.5257 11.5482 3.5468 11.3935 3.5257 11.2838C3.48914 11.101 3.5257 11.0419 3.62133 11.0194C3.92227 11.1362 4.11211 11.0996 4.2443 10.9463L4.48617 10.6313L5.15977 9.87757C5.25759 9.77532 5.32351 9.64679 5.34948 9.50769C5.37546 9.36859 5.36035 9.22494 5.30602 9.09428L5.08664 8.6035C5.05008 8.49381 5.08664 8.36163 5.18227 8.32506C5.42414 8.32506 5.59289 8.41366 5.66601 8.56694L5.73914 8.69913C5.85586 8.92553 6.12023 9.03663 6.30305 8.941C6.6456 8.81705 7.00751 8.75514 7.3718 8.75819H7.97227C8.38289 8.75819 8.71898 8.47272 8.80055 8.041C8.87367 7.52069 9.05648 7.10303 9.32086 6.8246C9.60633 6.50256 9.92133 6.26069 10.2954 6.07085C10.7862 5.81491 11.0871 5.43381 11.1813 4.95006C11.3135 4.3496 11.6285 3.91788 12.0602 3.63944L13.489 2.83366L13.8996 2.58475C14.1415 2.4385 14.3679 2.24725 14.5591 2.02085L14.9332 1.57366C15.0938 1.39455 15.3021 1.26481 15.5337 1.1996C15.7165 1.14053 15.9809 1.10397 16.2073 1.12647L16.954 1.1771C17.328 1.1771 17.6276 1.27272 17.9285 1.4035L18.1184 1.49913C18.3082 1.57225 18.4924 1.53569 18.5866 1.4035L18.7554 1.30788L19.5612 0.465534C19.6437 0.376072 19.7472 0.30854 19.8623 0.269018C19.9775 0.229496 20.1006 0.219224 20.2207 0.239127C20.4626 0.27569 20.7045 0.371315 20.9309 0.488034C21.2684 0.670846 21.5468 0.743971 21.8688 0.743971H22.0587C22.4693 0.743971 22.8785 0.803034 23.2962 0.897252L23.5746 0.970377C23.7113 1.00396 23.8548 0.996824 23.9875 0.949848C24.1202 0.902873 24.2362 0.81811 24.3213 0.706002C24.3345 0.684083 24.3525 0.665396 24.3738 0.651308C24.3952 0.63722 24.4194 0.628089 24.4448 0.624583C24.4701 0.621078 24.4959 0.623287 24.5203 0.631048C24.5447 0.63881 24.567 0.651927 24.5857 0.66944C24.6448 0.706002 24.6588 0.742565 24.6813 0.801627C24.7179 1.17569 24.9457 1.46116 25.2452 1.54835L25.5462 1.64397C25.8612 1.7396 26.1466 1.94491 26.3294 2.20788C26.5193 2.48632 26.7471 2.77178 27.003 2.9546L27.1929 3.14444C27.286 3.23474 27.398 3.30327 27.5208 3.3451C27.6436 3.38692 27.7742 3.401 27.903 3.38631H29.0084C29.4626 3.38631 29.8943 3.46647 30.3274 3.65069C30.738 3.84053 31.1698 3.8771 31.5579 3.72381C31.9755 3.59866 32.4073 3.541 32.839 3.59866L33.6448 3.72381C34.0188 3.76741 34.3915 3.95022 34.6193 4.2371L34.7149 4.32569C34.8977 4.51553 35.089 4.75741 35.2718 5.02178C35.3328 5.1371 35.4247 5.23315 35.5372 5.29922C35.6497 5.36528 35.7784 5.39873 35.9088 5.39585H37.0732C37.3587 5.39585 37.6371 5.45491 37.8649 5.58569C38.1068 5.7685 38.3121 5.95975 38.5019 6.1496L38.6848 6.39147C38.9112 6.65585 39.0223 7.00741 39.0068 7.3871C39.0068 7.68803 39.2332 7.94397 39.5271 7.94397L39.9082 7.98756C40.1726 7.98756 40.3919 8.17038 40.5241 8.41225L40.714 8.79335L41.1977 9.87757C41.2682 10.0438 41.2958 10.2252 41.2779 10.4049C41.2779 10.5877 41.3285 10.7424 41.4607 10.8155L41.6505 10.9477C41.7716 11.0383 41.8665 11.1592 41.9258 11.2982C41.985 11.4372 42.0065 11.5894 41.988 11.7394L41.8559 12.6183L41.8193 12.9924C41.8039 13.098 41.8168 13.2058 41.8565 13.3049C41.8963 13.4039 41.9616 13.4907 42.0457 13.5563C42.3241 13.7391 42.4563 13.988 42.4704 14.2665V14.6405C42.4704 14.8304 42.4338 15.0582 42.2876 15.2044C42.1625 15.3656 42.0956 15.5643 42.0977 15.7683L42.1568 16.2001C42.1568 16.501 42.3396 16.764 42.5309 16.9468C42.6557 17.0416 42.7602 17.1606 42.8382 17.2966C42.9163 17.4326 42.9662 17.5829 42.9851 17.7385C43.0582 18.2068 43.0737 18.5808 43.0737 18.9549V19.3866C43.0737 19.5399 43.0737 19.6876 43.1327 19.8338C43.1746 19.9715 43.2593 20.0922 43.3746 20.1783L43.7487 20.4568C44.1298 20.6987 44.3927 21.0207 44.5404 21.4524C44.7302 21.863 44.7823 22.2948 44.7823 22.7265V22.8727C44.7823 23.2102 44.7457 23.5688 44.636 23.8838C44.5411 24.1926 44.559 24.525 44.6866 24.8218C44.8399 25.0862 44.9355 25.3857 44.9721 25.7077C45.0452 26.0818 45.0087 26.4544 44.8765 26.7554L44.8399 26.8876C44.7425 27.1174 44.595 27.3225 44.4082 27.488C44.2184 27.6779 44.0341 27.789 43.9244 27.9198C43.8077 28.0294 43.7346 28.2207 43.7923 28.388L43.8429 28.6524C43.9385 29.0265 43.9385 29.3991 43.8429 29.7366V29.8899C43.7698 30.1683 43.6601 30.4102 43.5419 30.6366C43.4155 30.8751 43.2219 31.0711 42.9851 31.2005L42.6996 31.3833C42.6305 31.429 42.5737 31.491 42.5342 31.5639C42.4947 31.6367 42.4738 31.7182 42.4732 31.801C42.4745 31.9794 42.4094 32.1518 42.2904 32.2848L42.0049 32.6658C41.8221 32.9077 41.5802 33.113 41.3159 33.2227C41.078 33.3885 40.8571 33.5774 40.6563 33.7866C40.4682 34.0064 40.3283 34.2632 40.2457 34.5404C40.2201 34.6867 40.1435 34.8193 40.0294 34.9146C39.9154 35.0098 39.7713 35.0616 39.6227 35.0607H38.6116C38.3473 35.0607 38.1068 35.2505 37.9957 35.4783C37.8899 35.7298 37.7441 35.9625 37.564 36.1674C37.3832 36.357 37.2522 36.5884 37.1829 36.841C37.1463 37.0674 36.9635 37.2221 36.7723 37.1419C36.6664 37.0936 36.5464 37.0862 36.4355 37.1213C36.3246 37.1564 36.2306 37.2314 36.1718 37.3318C35.9822 37.6609 35.7506 37.9639 35.4827 38.2332L35.3505 38.3429C35.1016 38.5327 34.7866 38.6804 34.5012 38.6804C34.1637 38.6804 33.9963 38.8337 33.9443 39.0544C33.8851 39.265 33.846 39.4806 33.8276 39.6985C33.7874 39.9094 33.7262 40.1158 33.6448 40.3144L33.5491 40.4241C33.3593 40.7096 33.2116 40.988 33.0218 41.2299L32.9487 41.3466C32.7068 41.6616 32.3848 41.9105 32.0107 41.9991C31.6121 42.1325 31.1935 42.1968 30.7732 42.189H30.5088C30.4067 42.1949 30.3075 42.2254 30.2196 42.2777C30.1317 42.3301 30.0578 42.4029 30.004 42.4899L29.8943 42.6798L29.7776 42.8991L29.5357 43.3168C29.4467 43.4791 29.3265 43.6222 29.1819 43.7378C29.0373 43.8534 28.8713 43.9393 28.6934 43.9904C28.3007 44.0863 27.896 44.1232 27.4924 44.1001L27.1915 44.0635C26.9271 44.0635 26.6866 43.9904 26.4448 43.8737C26.2549 43.8005 25.9905 43.8737 25.8809 44.0635C25.7205 44.2947 25.4889 44.4671 25.2213 44.5543L24.6574 44.7371C24.27 44.8328 23.865 44.8328 23.4776 44.7371L23.1766 44.6415C22.9878 44.6283 22.8058 44.5652 22.6493 44.4587C22.4786 44.3673 22.2854 44.3268 22.0924 44.3419L21.8435 44.3855C21.4694 44.4221 21.1334 44.3855 20.7959 44.2899L20.291 44.1732C20.058 44.1004 19.8582 43.9475 19.7271 43.7415C19.669 43.6393 19.5877 43.5522 19.4898 43.4872C19.3918 43.4222 19.2799 43.3812 19.1632 43.3674H18.5627C18.1887 43.3168 17.8526 43.1846 17.6248 42.8991L16.878 42.189L16.6137 41.9626L16.203 41.6616L15.9612 41.4788C15.6689 41.2769 15.3322 41.1485 14.9796 41.1048L13.8588 40.9149C13.7421 40.9149 13.669 40.8783 13.5579 40.8558L13.1262 40.7602C12.9363 40.7237 12.7521 40.5774 12.6213 40.3862C12.5116 40.2033 12.2993 40.1218 12.1165 40.2033C11.7424 40.3496 11.4429 40.3862 11.142 40.4452H10.8776C10.4004 40.4864 9.9207 40.4031 9.48539 40.2033C9.0382 40.0135 8.73867 39.7351 8.46023 39.3751C8.34693 39.2092 8.20183 39.0675 8.03333 38.9581C7.86484 38.8488 7.6763 38.774 7.47867 38.738L6.95836 38.6283C6.56902 38.5477 6.19865 38.3936 5.86711 38.1741C5.49305 37.9098 5.3032 37.6693 5.15695 37.3683C5.00472 37.0774 4.91468 36.758 4.89258 36.4304V36.2841C4.85602 35.903 4.59164 35.5669 4.24008 35.4783C3.85928 35.3672 3.50712 35.1749 3.20789 34.9144C3.07545 34.7891 2.97007 34.638 2.89824 34.4704C2.82642 34.3028 2.78966 34.1222 2.79023 33.9399L2.83383 33.1116C2.83383 32.7896 2.7382 32.5112 2.5118 32.3058C2.28539 32.0794 2.13773 31.801 2.13773 31.5001L2.07867 30.8265C2.03375 30.3328 1.95291 29.8431 1.8368 29.3612C1.72711 28.9294 1.89586 28.4963 2.24742 28.2924L2.37961 28.1968C2.47442 28.133 2.54244 28.0365 2.57071 27.9258C2.59897 27.815 2.58551 27.6978 2.53289 27.5963L2.37961 27.4135C2.22793 27.2412 2.03338 27.1122 1.8157 27.0394C1.66945 26.9958 1.63289 26.8496 1.63289 26.754L1.8157 26.5276C1.86734 26.4645 1.89556 26.3855 1.89556 26.304C1.89556 26.2225 1.86734 26.1434 1.8157 26.0804C1.67917 25.9361 1.59414 25.7507 1.57383 25.553L1.53727 24.2424C1.53727 23.978 1.57383 23.7151 1.64695 23.4591C1.72711 23.2327 1.64695 22.9683 1.42758 22.8587L1.42898 22.8741ZM19.9887 20.3977C20.1209 20.2655 20.0984 20.0237 19.9887 19.9294C19.8123 19.7919 19.6655 19.6202 19.5569 19.4246L19.3671 19.1237C19.2404 18.8872 19.0771 18.6722 18.8834 18.4866L18.8468 18.4501C18.6603 18.2989 18.5123 18.1056 18.4151 17.8862C18.3681 17.7996 18.3434 17.7027 18.3434 17.6042C18.3434 17.5057 18.3681 17.4088 18.4151 17.3223L18.5248 17.1394C18.645 16.935 18.7103 16.703 18.7146 16.4658V16.3857C18.705 16.1859 18.6392 15.9929 18.5248 15.8288C18.4421 15.6613 18.3807 15.4842 18.342 15.3015V15.1918C18.3146 15.078 18.3136 14.9594 18.339 14.8451C18.3643 14.7309 18.4153 14.6239 18.4882 14.5323C18.6415 14.2904 18.7526 14.064 18.8102 13.7855V13.7419C18.8436 13.6398 18.8537 13.5315 18.8398 13.4249C18.826 13.3183 18.7885 13.2162 18.7301 13.126C18.6731 13.038 18.6369 12.9382 18.6243 12.8342C18.6116 12.7302 18.6228 12.6246 18.657 12.5255L18.7891 12.1515C18.8988 11.814 19.0746 11.5144 19.294 11.2501L19.5584 10.9716L19.7482 10.7452L19.8579 10.6355C19.9134 10.5745 19.9471 10.4969 19.9537 10.4147C19.9603 10.3325 19.9395 10.2504 19.8945 10.1813C19.7952 10.0111 19.7566 9.81237 19.7848 9.61741L19.8213 9.35303C19.8804 8.97897 20.0112 8.60631 20.253 8.30538L20.3262 8.23225C20.6046 7.85819 20.9632 7.60928 21.3738 7.4785L21.8871 7.29569C22.1065 7.22257 22.2612 6.97366 22.2612 6.73178C22.2612 6.43085 22.3568 6.16788 22.5241 5.926L22.6127 5.83038C22.8026 5.51538 23.0304 5.19335 23.1766 4.85585L23.3088 4.61397C23.3447 4.55689 23.365 4.49146 23.3679 4.42413C23.3679 4.10913 23.178 3.82366 22.8771 3.80819L22.0573 3.74913C21.589 3.71256 21.1193 3.74913 20.6651 3.74913L19.076 3.93897C18.8271 3.93897 18.6443 4.12178 18.6218 4.38616C18.619 4.5108 18.5781 4.6316 18.5047 4.73238C18.4314 4.83316 18.3289 4.90911 18.2112 4.95006L17.5376 5.13288L17.3477 5.19194L16.7838 5.38178C16.5776 5.44941 16.3877 5.55922 16.2262 5.70424C16.0647 5.84927 15.9352 6.02632 15.8459 6.22413L15.6996 6.466C15.5065 6.88126 15.1923 7.22836 14.7982 7.46163C14.4241 7.7035 14.2343 8.09866 14.1977 8.54585V8.73569C14.1612 9.10975 14.0445 9.48241 13.8237 9.74678L13.728 9.90006C13.6537 9.98644 13.6053 10.0921 13.5883 10.2048C13.5714 10.3175 13.5867 10.4327 13.6324 10.5371C13.728 10.7565 13.7857 11.0054 13.7646 11.2473V12.2429C13.7617 12.3617 13.725 12.4772 13.6587 12.5758C13.5925 12.6745 13.4994 12.7521 13.3905 12.7998C13.2663 12.8447 13.1552 12.9197 13.0671 13.0181C12.979 13.1165 12.9167 13.2353 12.8857 13.3637L12.7901 13.7377C12.7502 13.92 12.7643 14.1099 12.8308 14.2843C12.8972 14.4586 13.0131 14.6098 13.1641 14.7193C13.4651 14.9387 13.6549 15.2762 13.728 15.6938V16.0313C13.7871 16.4054 13.9924 16.778 14.3285 16.9693C14.666 17.1957 14.929 17.5332 15.0752 17.9073L15.1709 18.2082C15.2342 18.3936 15.3493 18.557 15.5026 18.6791C15.6558 18.8012 15.8408 18.8769 16.0357 18.8973H16.1454C16.4829 18.8973 16.7824 19.0871 16.9737 19.388C17.1565 19.689 17.4574 19.8929 17.7935 19.9519L18.3209 20.0982C18.6429 20.1938 18.9438 20.3626 19.1857 20.603L19.2223 20.6466C19.3216 20.72 19.4453 20.7526 19.568 20.7377C19.6906 20.7228 19.8029 20.6615 19.8818 20.5665L20.014 20.4202L19.9887 20.3977ZM22.1262 18.6765C22.309 18.7862 22.5002 18.7271 22.5734 18.5598L22.6324 18.4712C22.7646 18.2068 22.9334 17.9438 23.1162 17.7174L23.4973 17.1535C23.5479 17.1535 23.5704 17.1169 23.5859 17.0804L24.0401 16.4799C24.2299 16.2971 24.4507 16.1649 24.7137 16.1649C24.8342 16.1655 24.9521 16.1303 25.0525 16.0637C25.1529 15.9971 25.2313 15.9021 25.2776 15.7908C25.3507 15.5265 25.4604 15.2776 25.6882 15.0737L25.7838 14.964C25.9737 14.7741 26.1579 14.6785 26.3477 14.5899C26.5896 14.5533 26.816 14.5098 27.0438 14.5098H27.6007C27.8271 14.5098 28.0184 14.4212 28.128 14.2313C28.2377 14.0415 28.4065 13.9163 28.5963 13.8207L28.7862 13.7405C29.0871 13.6154 29.4232 13.5212 29.7607 13.4846L30.1348 13.448C30.3612 13.448 30.603 13.448 30.8309 13.5732C31.0137 13.7054 31.2626 13.6899 31.4468 13.5366L31.579 13.4635C31.8574 13.2737 32.1794 13.126 32.5169 13.0894H32.5535C32.9136 13.0262 33.28 13.0063 33.6448 13.0304H33.8276C34.2016 13.0894 34.5237 13.2202 34.7655 13.4987L34.8246 13.5718C35.0145 13.7616 35.3084 13.9163 35.5713 13.9163H35.8934C35.989 13.9163 36.0762 13.8727 36.1352 13.7841C36.1988 13.7168 36.2849 13.6753 36.3771 13.6674H36.5669C36.8313 13.6674 37.0718 13.7405 37.3137 13.8207L37.6357 13.9529C37.9366 14.0415 38.2516 14.1357 38.5737 14.1723H38.8001C38.9463 14.1723 39.042 14.0837 39.042 13.9529C39.049 13.7681 39.0031 13.5852 38.9098 13.4255L38.7776 13.1246C38.6313 12.8827 38.5132 12.6198 38.4035 12.3779L38.367 12.2823C38.3199 12.1957 38.2953 12.0988 38.2953 12.0003C38.2953 11.9018 38.3199 11.8049 38.367 11.7183V11.6227C38.3855 11.548 38.3765 11.469 38.3417 11.4003C38.3068 11.3316 38.2484 11.2778 38.1771 11.2487H38.0309C37.7346 11.1599 37.472 10.984 37.2771 10.7438L37.0943 10.554C36.9044 10.3712 36.7934 10.0857 36.7132 9.80725C36.6246 9.56538 36.4207 9.37553 36.1563 9.37553H35.3646C35.2273 9.35621 35.0951 9.31 34.9757 9.23954C34.8562 9.16908 34.7518 9.07576 34.6685 8.96491L34.5954 8.86928C34.4599 8.6734 34.3538 8.45879 34.2804 8.23225C34.1848 8.04241 33.9795 7.93131 33.7896 7.99038L33.5632 8.0635C33.1891 8.19569 32.8165 8.24631 32.4424 8.20975L32.1415 8.17319C31.8195 8.17319 31.5185 8.041 31.2766 7.85819L31.0868 7.726C30.9441 7.61601 30.7864 7.52698 30.6185 7.46163C30.4357 7.3885 30.281 7.42506 30.1713 7.55725L30.0757 7.66694C29.8855 7.86488 29.6364 7.99608 29.3655 8.041L28.3545 8.10007C28.1632 8.10724 27.9822 8.18841 27.8496 8.32647C27.7045 8.45614 27.5272 8.54452 27.3363 8.58241H27.2998C27.117 8.58241 26.9257 8.7146 26.7429 8.84678V8.88335C26.6541 8.97371 26.5481 9.04549 26.4313 9.0945C26.3144 9.14351 26.189 9.16877 26.0623 9.16881L25.9891 9.20538C25.7627 9.20538 25.542 9.20538 25.3155 9.26444H25.0891C24.7741 9.31506 24.5252 9.57944 24.4521 9.91694L24.379 10.3487C24.3188 10.6427 24.1907 10.9187 24.0049 11.1544C23.8151 11.3808 23.5873 11.5285 23.3088 11.5285H22.9938C22.804 11.5721 22.6127 11.7774 22.6493 11.9968C22.6929 12.3188 22.6493 12.5973 22.5987 12.8827L22.5255 13.1977C22.4933 13.3312 22.43 13.4551 22.3408 13.5594C22.2516 13.6638 22.139 13.7456 22.0123 13.7982L21.9026 13.8573H21.866C21.7563 13.9304 21.6762 14.0991 21.7704 14.2313C21.8785 14.3983 21.9252 14.5976 21.9026 14.7952L21.8435 15.3957C21.8315 15.6125 21.7689 15.8234 21.6607 16.0116C21.6068 16.0946 21.5752 16.1901 21.5688 16.2888C21.5624 16.3875 21.5815 16.4863 21.6241 16.5755L21.807 16.9862C21.9032 17.1712 21.9244 17.3863 21.866 17.5866C21.8018 17.7673 21.7769 17.9595 21.7929 18.1505C21.7929 18.3404 21.9026 18.5246 22.0573 18.6048L22.1262 18.6765ZM36.9368 32.2341C37.1266 32.4169 37.4051 32.4901 37.6329 32.3438L38.007 32.1019C38.2041 31.9662 38.3489 31.7673 38.4176 31.538V31.5015L38.6074 30.9376L38.7171 30.7477L38.7973 30.5649L38.8704 30.4327C38.9047 30.3545 38.9561 30.2849 39.0208 30.2292C39.0856 30.1735 39.162 30.133 39.2444 30.1107L39.3176 30.0741C39.4709 30.0376 39.5665 29.8913 39.5665 29.7366C39.5665 29.5538 39.6551 29.3991 39.7493 29.2683L39.9026 29.1362L40.2766 28.6524V28.6158C40.386 28.4618 40.463 28.2872 40.503 28.1026C40.5341 27.9131 40.5061 27.7187 40.4229 27.5457L40.3863 27.4655C40.3207 27.311 40.2762 27.1483 40.2541 26.9818L40.2035 26.4544L40.1445 25.8905C40.1445 25.7077 40.2176 25.5165 40.3343 25.3337C40.4594 25.1804 40.5537 24.9891 40.6352 24.8063V24.7332L40.6718 24.6966C40.7084 24.5068 40.6127 24.3155 40.4454 24.3155C40.2555 24.2269 40.0713 24.0737 40.0137 23.8473L39.9546 23.7376C39.8627 23.4082 39.8135 23.0684 39.8084 22.7265L39.8449 21.7885V21.7294C39.8435 21.5803 39.7836 21.4378 39.6781 21.3323C39.5727 21.2269 39.4301 21.167 39.281 21.1655H39.2444C39.0706 21.1724 38.8973 21.1426 38.7357 21.0782C38.5741 21.0137 38.4279 20.916 38.3065 20.7915L38.1602 20.6016L37.7791 20.1769L37.2954 19.613C37.1146 19.3519 36.9057 19.1114 36.6724 18.8958C36.4896 18.713 36.2041 18.5218 35.9257 18.4852L35.5516 18.4262C35.3257 18.3795 35.11 18.2928 34.9146 18.1702C34.7613 18.0535 34.5405 18.0901 34.3873 18.2433L34.1454 18.5077L34.0287 18.5808C33.8965 18.6174 33.7727 18.5443 33.7137 18.391C33.6344 18.1583 33.6475 17.9041 33.7502 17.6808V17.5712C33.7502 17.439 33.6405 17.3448 33.5238 17.3813H33.2229C32.8839 17.3938 32.5464 17.3314 32.2343 17.1985L32.0445 17.1183C31.853 17.0232 31.6423 16.9732 31.4285 16.9721C31.2306 16.9677 31.0354 17.0183 30.8646 17.1183L30.7915 17.1774C30.5651 17.3213 30.3056 17.4046 30.0377 17.4193H29.4218C29.1499 17.4165 28.8848 17.504 28.668 17.6682C28.4271 17.8128 28.1616 17.912 27.8848 17.9607L27.3799 18.0408C27.1322 18.0931 26.8995 18.2008 26.6993 18.3558C26.5165 18.5457 26.2521 18.6568 26.0102 18.7299L25.9146 18.7735C25.6071 18.8639 25.3422 19.0614 25.1679 19.3304L24.9415 19.5568C24.8772 19.6437 24.8425 19.7489 24.8425 19.857C24.8425 19.9651 24.8772 20.0704 24.9415 20.1573C25.0512 20.3471 25.279 20.3991 25.5054 20.3471L25.7838 20.2304C25.9301 20.1798 26.1059 20.2304 26.231 20.3035C26.2942 20.3545 26.3669 20.3925 26.4449 20.4152C26.5228 20.4379 26.6045 20.4448 26.6852 20.4357L27.1535 20.3851C27.4179 20.3851 27.6809 20.3851 27.9368 20.4582C28.2223 20.5538 28.4641 20.648 28.6905 20.8323C28.9036 21.0053 29.1638 21.1101 29.4373 21.1332C29.7227 21.1698 30.0012 21.2288 30.2655 21.323L30.4484 21.3596C30.6382 21.4187 30.7929 21.5424 30.9026 21.7337C30.9982 21.8869 31.0854 22.1077 31.0854 22.2976V22.3566C31.0854 22.576 31.2752 22.7307 31.4665 22.7307H31.5762C31.8771 22.7307 32.1991 22.7673 32.5141 22.8629L32.6463 22.9135C32.8484 22.9882 33.024 23.1207 33.1512 23.2946C33.3044 23.4774 33.393 23.6687 33.4521 23.8515L33.5112 24.1158C33.5618 24.4013 33.5843 24.6798 33.5843 24.9807V25.0763C33.5843 25.2591 33.7165 25.4504 33.9218 25.5235C34.1116 25.5601 34.3324 25.6402 34.5448 25.7499L34.6334 25.7865C34.8823 25.9327 35.1241 26.124 35.3069 26.3504L35.4026 26.4826C35.6515 26.761 35.7766 27.1196 35.7766 27.4712V27.6033C35.7766 27.8888 35.726 28.1673 35.6304 28.4316C35.5573 28.658 35.6304 28.9224 35.8723 28.9955L36.0045 29.0912C36.2899 29.2008 36.5318 29.4062 36.7146 29.648C36.9044 29.9335 36.979 30.2485 36.979 30.586V31.1499C36.9424 31.3398 36.8904 31.4874 36.7962 31.6182C36.702 31.749 36.7005 31.9402 36.7962 32.0724L36.9059 32.2552L36.9368 32.2341ZM24.9387 22.6323H24.9021C24.822 22.6323 24.7854 22.7279 24.8065 22.8221L24.8796 23.1962C24.9527 23.4971 24.9893 23.7966 25.0329 24.0976C25.0695 24.3985 25.2157 24.6544 25.4435 24.8443H25.5166C25.6543 24.9526 25.7673 25.089 25.848 25.2445C25.9288 25.3999 25.9754 25.5708 25.9849 25.7457V26.6837C25.9484 26.8665 25.9849 27.0577 26.1016 27.211L26.1902 27.2996C26.3629 27.5142 26.4628 27.7782 26.4757 28.0533L26.5263 29.0855C26.5263 29.3274 26.3801 29.5327 26.1523 29.5693L25.9694 29.6058C25.8373 29.6058 25.7796 29.7591 25.7796 29.8913C25.7796 30.0376 25.8387 30.2063 25.8893 30.3596V30.3962C25.9484 30.579 25.9694 30.7702 25.9484 30.9601L25.8752 31.4649C25.8064 31.8316 25.6801 32.1852 25.5012 32.5126L25.369 32.739C25.2875 32.9029 25.1533 33.0346 24.9879 33.113C24.8991 33.1496 24.8194 33.2053 24.7548 33.2764C24.6901 33.3474 24.6419 33.4318 24.6138 33.5237L24.4676 34.1973C24.3612 34.5956 24.1958 34.9757 23.9768 35.3251H23.9402C23.7165 35.6317 23.4291 35.8864 23.0979 36.0718L22.8715 36.2251L22.3076 36.5035C22.2178 36.5449 22.1399 36.6082 22.0809 36.6876C22.0219 36.7669 21.9838 36.8598 21.9701 36.9577L21.8815 37.5737C21.8224 37.9477 21.6916 38.2698 21.4273 38.5116L21.1854 38.7971L20.8999 39.0755L20.6215 39.3765C20.3951 39.6408 20.0576 39.7505 19.6835 39.6985L19.0099 39.5663L18.387 39.4862H18.2182C18.1451 39.5663 18.1296 39.676 18.1816 39.7871C18.3138 40.0135 18.5191 40.1682 18.7455 40.1682L19.1562 40.2413C19.346 40.2413 19.5738 40.3369 19.7566 40.4241C19.9465 40.5563 20.1307 40.6505 20.3571 40.7096H20.3937C20.6426 40.8052 20.8985 40.8193 21.1474 40.8052L21.4259 40.7616C21.7479 40.7251 22.0488 40.7616 22.3048 40.8783L22.5312 40.9515C22.6268 40.988 22.773 40.9515 22.8687 40.8558C22.976 40.7511 23.1032 40.6689 23.2427 40.614L23.396 40.5774C23.6379 40.5043 23.8798 40.4607 24.1427 40.4607H24.296C24.5154 40.4607 24.7277 40.5043 24.912 40.614L24.9851 40.6505C25.1173 40.7096 25.2705 40.6505 25.3662 40.5408C25.4168 40.4087 25.549 40.2765 25.6812 40.1668L26.1494 39.8447L26.4504 39.6549L26.6037 39.5663C26.8043 39.4375 27.0389 39.3714 27.2773 39.3765L27.9509 39.3174C28.0819 39.3008 28.2051 39.2461 28.3054 39.1601C28.4056 39.0741 28.4784 38.9606 28.5148 38.8337C28.5879 38.5482 28.6976 38.2698 28.8888 38.0279C29.0787 37.779 29.2629 37.5737 29.4527 37.3908C29.6637 37.2143 29.925 37.1089 30.1994 37.0899H30.3527C30.4987 37.0607 30.6295 36.9806 30.722 36.864C30.8144 36.7473 30.8625 36.6016 30.8576 36.4529V35.1929C30.8941 35.0101 30.9673 34.7612 31.077 34.5769L31.458 34.013L31.6043 33.8232C31.721 33.7276 31.7941 33.6038 31.9263 33.4491L32.1091 33.2073C32.2259 33.0174 32.2259 32.7755 32.0726 32.6068C31.8968 32.4083 31.7867 32.1602 31.7576 31.8966V31.8165C31.7131 31.5035 31.7303 31.1849 31.8082 30.8785V30.7899C31.9038 30.541 32.0346 30.2991 32.1893 30.0727C32.2609 29.9852 32.2948 29.8728 32.2838 29.7603C32.2727 29.6477 32.2175 29.5442 32.1302 29.4723L31.8082 29.1938C31.5508 28.9604 31.3911 28.6385 31.361 28.2924L31.3244 27.9183C31.3244 27.8016 31.3245 27.6765 31.2879 27.5443L31.2513 27.2588C31.2274 27.1066 31.1712 26.9612 31.0866 26.8325C31.0019 26.7037 30.8908 26.5945 30.7605 26.5121L30.6284 26.4755C30.42 26.345 30.2405 26.1732 30.101 25.9707C29.9548 25.7808 29.8816 25.5165 29.8226 25.2535L29.7635 24.9385C29.7635 24.8218 29.6904 24.7487 29.5807 24.6966L28.6793 24.4112C28.4894 24.3746 28.3052 24.2283 28.1744 24.0962H28.1379C28.0212 23.9429 27.837 23.9429 27.7202 24.0526L27.5374 24.2424C27.5009 24.3015 27.4573 24.3155 27.4052 24.3015C27.2885 24.3015 27.2154 24.2058 27.2519 24.1116C27.273 23.9649 27.255 23.8152 27.1997 23.6777C27.1444 23.5401 27.0537 23.4196 26.937 23.3283L26.688 23.1385L26.1312 22.7644C25.9779 22.7054 25.7501 22.7644 25.677 22.9473L25.6038 23.064C25.6038 23.1005 25.5448 23.1146 25.5307 23.1371C25.4505 23.1371 25.3409 23.1371 25.3409 23.0415L25.2818 22.9458C25.2312 22.8362 25.099 22.763 24.9809 22.7265L24.9387 22.6323ZM22.6901 24.5068L22.5944 24.4112C22.4988 24.338 22.4046 24.3521 22.309 24.4477C22.1741 24.6708 22.0727 24.9124 22.008 25.1649V25.2015C21.9574 25.4433 21.7296 25.6121 21.5032 25.5755H21.2838C21.1578 25.5781 21.0378 25.6304 20.9501 25.721C20.8624 25.8116 20.814 25.9332 20.8155 26.0593C20.8155 26.3968 20.6988 26.7399 20.4935 26.9973L20.3838 27.114C20.1868 27.3517 19.9249 27.5271 19.6301 27.6188L19.4838 27.6554C19.3882 27.6797 19.3017 27.7316 19.2352 27.8046C19.1688 27.8776 19.1251 27.9685 19.1098 28.066C19.1098 28.2558 18.993 28.4471 18.8454 28.5933L18.6555 28.7396C18.4291 28.9885 18.0916 29.1207 17.7541 29.1573L16.8162 29.2529C16.5152 29.2529 16.2593 29.4357 16.0695 29.7212C15.8796 29.9996 15.6012 30.1894 15.3227 30.226L14.9051 30.2626C14.5927 30.3048 14.2753 30.2925 13.9671 30.226L13.7843 30.1894L13.271 30.0573C13.1921 30.0288 13.1062 30.0262 13.0257 30.05C12.9453 30.0738 12.8746 30.1226 12.8238 30.1894L12.634 30.4313C12.5194 30.5647 12.3743 30.6684 12.2109 30.7335C12.0476 30.7987 11.8709 30.8233 11.696 30.8054L10.4796 30.6591C10.2898 30.6591 10.1421 30.5635 9.97476 30.4693C9.78492 30.3596 9.65273 30.2274 9.52055 30.0952L9.05226 29.5313C9.00164 29.4948 8.90601 29.4723 8.81039 29.4948L8.54601 29.6044L7.49836 29.8688C7.30851 29.9279 7.06664 29.8688 6.88242 29.7591C6.69258 29.6058 6.46477 29.5693 6.23836 29.5693H5.99648C5.94156 29.5832 5.89002 29.6081 5.84493 29.6425C5.79984 29.6768 5.76212 29.7198 5.73403 29.769C5.70595 29.8183 5.68806 29.8726 5.68145 29.9289C5.67484 29.9852 5.67963 30.0422 5.69555 30.0966L5.76867 30.4707C5.82773 30.6605 5.81226 30.8813 5.71805 31.0712C5.62383 31.261 5.64492 31.4452 5.76867 31.6351L5.88539 31.7813C6.03164 32.0077 6.25945 32.199 6.4493 32.3818C6.63211 32.5716 6.82336 32.7558 6.96961 33.0047L7.25508 33.5096C7.3169 33.6348 7.41304 33.7399 7.5323 33.8126C7.65156 33.8853 7.78902 33.9226 7.92867 33.9202C8.20711 33.9202 8.49258 34.0158 8.71195 34.1987L9.27586 34.726C9.42914 34.8582 9.64992 34.8793 9.8032 34.7626L9.89883 34.726C10.0085 34.726 10.0816 34.7991 10.0816 34.9158V35.0115C10.0816 35.2533 10.2715 35.4798 10.5134 35.5683L11.3557 35.7582C11.6566 35.8538 11.9562 35.948 12.2416 36.1323H12.3879C12.4258 36.1322 12.4632 36.124 12.4977 36.1083C12.5322 36.0927 12.5629 36.0699 12.5879 36.0414C12.6129 36.013 12.6316 35.9795 12.6427 35.9433C12.6538 35.9071 12.657 35.8689 12.6523 35.8313V35.1788C12.6523 34.989 12.7254 34.7977 12.8787 34.7246L12.9743 34.688C13.0629 34.7246 13.1571 34.7977 13.1205 34.8779V35.1929C13.1205 35.4347 13.1937 35.6612 13.3624 35.8299C13.4422 35.9146 13.545 35.9741 13.6581 36.0014C13.7712 36.0286 13.8899 36.0223 13.9995 35.9832C14.2259 35.8876 14.4537 35.8665 14.6955 35.8876L15.3916 35.9241C15.7291 35.9607 16.0441 35.9241 16.3296 35.7919C16.6671 35.6823 16.9455 35.5276 17.2085 35.3237L17.3182 35.2505L17.8821 34.7457C18.0556 34.5671 18.2927 34.4645 18.5416 34.4602H19.2884C19.4783 34.4351 19.6548 34.3485 19.7909 34.2137C19.927 34.0789 20.0152 33.9032 20.0421 33.7135L20.1152 33.3394C20.1152 33.0905 20.2249 32.8712 20.3937 32.6799C20.5835 32.4901 20.7677 32.379 20.9576 32.3058L21.184 32.2102C21.3429 32.1407 21.4851 32.0382 21.6013 31.9095C21.7174 31.7807 21.8048 31.6287 21.8576 31.4635L21.9673 31.0093C22.0629 30.6352 22.2527 30.2626 22.5312 30.0207L22.5677 29.9771C22.7941 29.7943 22.8321 29.4202 22.6845 29.1573L22.6254 29.0251C22.5598 28.9199 22.5202 28.8006 22.5099 28.6771C22.4996 28.5536 22.519 28.4294 22.5663 28.3149C22.662 28.0505 22.7562 27.8241 22.9038 27.5977L23.0937 27.3333C23.1668 27.1871 23.1668 26.9593 23.0571 26.8285C22.9381 26.6808 22.8714 26.4978 22.8673 26.3082L22.8307 26.0438V25.4068C22.8586 25.1973 22.8384 24.9843 22.7716 24.7838L22.6985 24.5644L22.6901 24.5068ZM20.0098 23.078V23.0274C20.0098 22.8376 19.893 22.7265 19.7454 22.7265H19.2546C19.0807 22.7631 18.9011 22.7631 18.7273 22.7265H17.8849C17.4532 22.7265 17.0426 22.6463 16.632 22.5366L16.1777 22.4269L15.8037 22.3102L14.9613 22.0318C14.7451 21.97 14.5445 21.863 14.3729 21.7178C14.2012 21.5725 14.0624 21.3924 13.9657 21.1894L13.8701 20.9996C13.7379 20.7212 13.4595 20.5679 13.181 20.6255C12.859 20.6255 12.544 20.6255 12.243 20.4793L12.0166 20.3837C11.5849 20.1938 11.2699 19.8198 11.2699 19.3149L11.1898 18.8101C11.1391 18.5457 10.9704 18.3052 10.7426 18.2096C10.479 18.0884 10.2267 17.9439 9.98883 17.7779L9.90023 17.7188C9.60379 17.492 9.37559 17.1879 9.2407 16.8399L9.20414 16.7302C9.10764 16.4266 9.09501 16.1025 9.16758 15.7923L9.20414 15.6755C9.27726 15.4337 9.29976 15.1918 9.29976 14.9288C9.29694 14.6945 9.20196 14.4707 9.03539 14.3058L8.77102 14.064C8.62134 13.9431 8.49898 13.7918 8.41196 13.6202C8.32495 13.4486 8.27526 13.2605 8.26617 13.0683C8.22327 12.6683 8.23557 12.2642 8.30273 11.8674V11.7577C8.30236 11.6586 8.26283 11.5637 8.19276 11.4936C8.12269 11.4236 8.02776 11.384 7.92867 11.3837H7.86961C7.62773 11.3837 7.42242 11.5299 7.3057 11.7577C7.21241 12.0061 7.07309 12.2346 6.89508 12.4313L6.82195 12.5269L6.25805 13.0908C6.0682 13.2737 5.95711 13.5591 5.92055 13.8376C5.88544 14.1231 5.80918 14.4021 5.69414 14.6658L5.65758 14.7615C5.56706 14.9849 5.41791 15.1797 5.22586 15.3254C5.13368 15.3957 5.0578 15.4852 5.00343 15.5876C4.94906 15.6901 4.91748 15.803 4.91086 15.9188L4.8743 16.7837C4.8743 17.1577 4.81523 17.5374 4.68445 17.9115L4.64789 18.0577C4.59992 18.1709 4.5966 18.2981 4.63861 18.4137C4.68061 18.5293 4.76482 18.6247 4.8743 18.6807L5.65758 19.0182L5.7307 19.0548C5.78976 19.0548 5.81086 19.0913 5.82633 19.1504C5.88539 19.2235 5.82633 19.3332 5.76726 19.3332L5.58445 19.4288C5.47477 19.4654 5.39461 19.5821 5.35805 19.7143L5.32148 19.8971V19.9337L5.13164 20.9883C5.09508 21.1346 5.09508 21.3033 5.09508 21.4721C5.09519 21.5444 5.11677 21.6151 5.15707 21.6752C5.19737 21.7353 5.25459 21.7821 5.32148 21.8096L5.73211 21.9994C5.92195 22.1091 6.14977 22.2413 6.29602 22.3735L6.48586 22.5268C6.54445 22.6033 6.6194 22.6658 6.70523 22.7096L6.78539 22.7827C6.91454 22.8971 7.00659 23.0474 7.04977 23.2144L7.23258 24.0568C7.23258 24.2832 7.42242 24.4744 7.60664 24.5251L7.90758 24.6207C7.90758 24.6207 7.96664 24.6207 8.0032 24.6573L8.37726 24.774C8.6782 24.8696 8.94117 25.0383 9.16898 25.2577C9.39539 25.4476 9.61617 25.6894 9.80602 25.9538L9.87914 26.0269C10.0324 26.2168 10.2532 26.3124 10.4796 26.2533C10.706 26.1943 10.9479 26.1802 11.1898 26.1802H11.4752C11.658 26.1802 11.907 26.2308 12.1123 26.363C12.2951 26.4798 12.544 26.5529 12.7648 26.6485H12.8238C12.9313 26.6915 13.0477 26.7074 13.1628 26.6946C13.2778 26.6819 13.3879 26.6409 13.4834 26.5754C13.675 26.4244 13.913 26.3444 14.157 26.349L15.0359 26.3996C15.2257 26.3996 15.4099 26.363 15.5041 26.2168H15.5407L15.8627 25.9158L15.9584 25.8202C16.0326 25.7352 16.1237 25.6666 16.2258 25.6186C16.328 25.5707 16.439 25.5445 16.5518 25.5418H17.4012C17.6205 25.5418 17.8329 25.3519 17.9215 25.1677C17.9707 25.0697 18.0419 24.9843 18.1294 24.9183C18.217 24.8522 18.3186 24.8071 18.4263 24.7866L18.8074 24.7135C18.9537 24.7135 19.0859 24.5813 19.1449 24.4126C19.1897 24.2385 19.2869 24.0824 19.4234 23.9654L19.7243 23.6644C19.8959 23.506 20.0093 23.2946 20.0463 23.064L20.0098 23.078Z" fill="white"/>
</g>
<defs>
<clipPath id="clip0_34_41">
<rect width="45" height="45" fill="white"/>
</clipPath>
</defs>
</svg>
