<svg width="45" height="45" viewBox="0 0 45 45" fill="none" xmlns="http://www.w3.org/2000/svg">
<g id="ic:baseline-discord">
<path id="Vector" d="M36.1317 9.99384C33.638 8.83134 30.938 7.98759 28.1255 7.50009C28.1008 7.4993 28.0763 7.50393 28.0536 7.51364C28.0309 7.52336 28.0107 7.53794 27.9942 7.55634C27.6567 8.17509 27.263 8.98134 27.0005 9.60009C24.0173 9.15009 20.9836 9.15009 18.0005 9.60009C17.738 8.96259 17.3442 8.17509 16.988 7.55634C16.9692 7.51884 16.913 7.50009 16.8567 7.50009C14.0442 7.98759 11.363 8.83134 8.85046 9.99384C8.83171 9.99384 8.81296 10.0126 8.79421 10.0313C3.69421 17.6626 2.28796 25.0876 2.98171 32.4376C2.98171 32.4751 3.00046 32.5126 3.03796 32.5313C6.41296 35.0063 9.65671 36.5063 12.863 37.5001C12.9192 37.5188 12.9755 37.5001 12.9942 37.4626C13.7442 36.4313 14.4192 35.3438 15.0005 34.2001C15.038 34.1251 15.0005 34.0501 14.9255 34.0313C13.8567 33.6188 12.8442 33.1313 11.8505 32.5688C11.7755 32.5313 11.7755 32.4188 11.8317 32.3626C12.038 32.2126 12.2442 32.0438 12.4505 31.8938C12.488 31.8563 12.5442 31.8563 12.5817 31.8751C19.0317 34.8188 25.988 34.8188 32.363 31.8751C32.4005 31.8563 32.4567 31.8563 32.4942 31.8938C32.7005 32.0626 32.9067 32.2126 33.113 32.3813C33.188 32.4376 33.188 32.5501 33.0942 32.5876C32.1192 33.1688 31.088 33.6376 30.0192 34.0501C29.9442 34.0688 29.9255 34.1626 29.9442 34.2188C30.5442 35.3626 31.2192 36.4501 31.9505 37.4813C32.0067 37.5001 32.063 37.5188 32.1192 37.5001C35.3442 36.5063 38.588 35.0063 41.963 32.5313C42.0005 32.5126 42.0192 32.4751 42.0192 32.4376C42.8442 23.9438 40.6505 16.5751 36.2067 10.0313C36.188 10.0126 36.1692 9.99384 36.1317 9.99384ZM15.9755 27.9563C14.0442 27.9563 12.4317 26.1751 12.4317 23.9813C12.4317 21.7876 14.0067 20.0063 15.9755 20.0063C17.963 20.0063 19.538 21.8063 19.5192 23.9813C19.5192 26.1751 17.9442 27.9563 15.9755 27.9563ZM29.0442 27.9563C27.113 27.9563 25.5005 26.1751 25.5005 23.9813C25.5005 21.7876 27.0755 20.0063 29.0442 20.0063C31.0317 20.0063 32.6067 21.8063 32.588 23.9813C32.588 26.1751 31.0317 27.9563 29.0442 27.9563Z" fill="white"/>
</g>
</svg>
