<svg width="45" height="45" viewBox="0 0 45 45" fill="none" xmlns="http://www.w3.org/2000/svg">
<path d="M39.375 8.4375H5.625C4.87908 8.4375 4.16371 8.73382 3.63626 9.26126C3.10882 9.78871 2.8125 10.5041 2.8125 11.25V33.75C2.8125 34.4959 3.10882 35.2113 3.63626 35.7387C4.16371 36.2662 4.87908 36.5625 5.625 36.5625H39.375C40.1209 36.5625 40.8363 36.2662 41.3637 35.7387C41.8912 35.2113 42.1875 34.4959 42.1875 33.75V11.25C42.1875 10.5041 41.8912 9.78871 41.3637 9.26126C40.8363 8.73382 40.1209 8.4375 39.375 8.4375ZM36.2812 11.25L22.5 20.7844L8.71875 11.25H36.2812ZM5.625 33.75V12.5297L21.6984 23.6531C21.9338 23.8164 22.2135 23.9039 22.5 23.9039C22.7865 23.9039 23.0662 23.8164 23.3016 23.6531L39.375 12.5297V33.75H5.625Z" fill="white"/>
</svg>
