<svg width="45" height="45" viewBox="0 0 45 45" fill="none" xmlns="http://www.w3.org/2000/svg">
<g id="mdi:github" clip-path="url(#clip0_34_39)">
<path id="Vector" d="M23.3177 4.09082C20.5779 4.09082 17.8649 4.63303 15.3336 5.68649C12.8023 6.73994 10.5023 8.28402 8.56492 10.2306C4.65223 14.1618 2.4541 19.4936 2.4541 25.0532C2.4541 34.3186 8.44197 42.1794 16.7248 44.9674C17.768 45.1351 18.1018 44.4853 18.1018 43.9193V40.3767C12.3226 41.6344 11.0916 37.5677 11.0916 37.5677C10.1319 35.1361 8.77578 34.4863 8.77578 34.4863C6.87719 33.1866 8.92183 33.2285 8.92183 33.2285C11.0082 33.3752 12.114 35.3876 12.114 35.3876C13.9291 38.5739 16.9961 37.6306 18.1853 37.1275C18.3731 35.765 18.9155 34.8426 19.4997 34.3186C14.868 33.7945 10.0067 31.9917 10.0067 24.0051C10.0067 21.6782 10.7996 19.8126 12.1557 18.3243C11.9471 17.8002 11.2168 15.6201 12.3643 12.7902C12.3643 12.7902 14.1169 12.2242 18.1018 14.9284C19.7501 14.4672 21.5443 14.2366 23.3177 14.2366C25.0911 14.2366 26.8854 14.4672 28.5336 14.9284C32.5186 12.2242 34.2711 12.7902 34.2711 12.7902C35.4186 15.6201 34.6884 17.8002 34.4798 18.3243C35.8359 19.8126 36.6287 21.6782 36.6287 24.0051C36.6287 32.0127 31.7466 33.7735 27.0941 34.2976C27.8451 34.9474 28.5336 36.2261 28.5336 38.1756V43.9193C28.5336 44.4853 28.8675 45.1561 29.9315 44.9674C38.2144 42.1585 44.1814 34.3186 44.1814 25.0532C44.1814 22.3004 43.6417 19.5745 42.5932 17.0312C41.5447 14.488 40.0079 12.1771 38.0706 10.2306C36.1332 8.28402 33.8332 6.73994 31.3019 5.68649C28.7706 4.63303 26.0576 4.09082 23.3177 4.09082Z" fill="white"/>
</g>
<defs>
<clipPath id="clip0_34_39">
<rect width="45" height="45" fill="white"/>
</clipPath>
</defs>
</svg>
