<svg width="45" height="45" viewBox="0 0 45 45" fill="none" xmlns="http://www.w3.org/2000/svg">
<g id="ic:baseline-phone">
<path id="Vector" d="M12.4125 20.2312C15.1125 25.5375 19.4625 29.8687 24.7687 32.5875L28.8937 28.4625C29.4 27.9563 30.15 27.7875 30.8063 28.0125C32.9062 28.7062 35.175 29.0813 37.5 29.0813C38.5312 29.0813 39.375 29.925 39.375 30.9563V37.5C39.375 38.5312 38.5312 39.375 37.5 39.375C19.8937 39.375 5.625 25.1063 5.625 7.5C5.625 6.46875 6.46875 5.625 7.5 5.625H14.0625C15.0938 5.625 15.9375 6.46875 15.9375 7.5C15.9375 9.84375 16.3125 12.0938 17.0062 14.1938C17.2125 14.85 17.0625 15.5813 16.5375 16.1063L12.4125 20.2312Z" fill="white"/>
</g>
</svg>
